<svg width="164" height="164" viewBox="0 0 164 164" fill="none" xmlns="http://www.w3.org/2000/svg">
<path d="M68.3215 28.3009C66.1615 24.5209 62.8515 19.3709 58.0415 13.9009C51.6815 6.66087 48.0815 2.57087 44.2815 3.13087C38.5415 3.98087 35.7715 14.9309 33.3015 24.5709C31.6615 30.9509 29.8515 40.4209 29.7915 52.4009C42.6415 44.3709 55.4815 36.3309 68.3315 28.3009H68.3215Z" fill="#FF8B22"/>
<path d="M64.8214 29.6509C63.1514 26.6609 60.4414 22.3809 56.3114 17.8709C52.3014 13.5009 50.1714 11.2209 47.9014 11.6109C44.0414 12.2809 42.4214 20.2309 40.9114 27.5909C39.2914 35.5209 38.9814 42.1809 38.9814 46.6509L64.8314 29.6509H64.8214Z" fill="#FFDFBD"/>
<path d="M89.3213 28.3009C91.4813 24.5209 94.7913 19.3709 99.6013 13.9009C105.971 6.66087 109.561 2.57087 113.371 3.13087C119.111 3.98087 121.881 14.9309 124.351 24.5709C125.991 30.9509 127.801 40.4209 127.861 52.4009C115.011 44.3709 102.171 36.3309 89.3213 28.3009Z" fill="#FF8B22"/>
<path d="M92.8313 29.6509C94.5013 26.6609 97.2113 22.3809 101.341 17.8709C105.351 13.5009 107.481 11.2209 109.751 11.6109C113.611 12.2809 115.231 20.2309 116.741 27.5909C118.361 35.5209 118.671 42.1809 118.671 46.6509L92.8213 29.6509H92.8313Z" fill="#FFDFBD"/>
<path d="M78.8213 21.9109C37.7313 21.9109 21.3513 51.4609 21.3513 80.7509V104.341C21.3513 129.881 32.0613 150.591 68.8213 150.591H88.8113C125.571 150.591 136.281 129.881 136.281 104.341V80.7509C136.281 51.4709 119.901 21.9109 78.8113 21.9109H78.8213Z" fill="#FF8B22"/>
<path d="M67.7412 164.001H61.9312C57.8612 164.001 54.7912 162.021 53.8012 156.351L52.2612 147.761H75.1212V156.631C75.1212 160.701 71.8212 164.001 67.7512 164.001H67.7412Z" fill="#FF8B22"/>
<path d="M89.9015 164.001H95.7115C99.7815 164.001 102.851 162.021 103.841 156.351L105.381 147.761H82.5215V156.631C82.5215 160.701 85.8215 164.001 89.8915 164.001H89.9015Z" fill="#FF8B22"/>
<path d="M86.6613 73.7409C84.3713 73.2409 82.4313 73.8609 81.4113 74.2809C80.9813 74.4009 80.2113 74.5809 79.3413 74.6509C79.1313 74.6709 78.9713 74.6709 78.8213 74.6709C77.9713 74.6709 77.6313 74.5209 76.2313 74.2809C75.2513 73.9209 72.1813 73.5109 70.4313 73.8809C67.8513 74.4309 63.3413 77.7309 63.3313 82.8609C63.3213 86.4109 65.4713 89.3709 67.7113 90.7109C69.5513 91.8109 71.4513 91.8209 73.2913 91.8309C75.8613 91.8509 76.1013 91.2109 78.8213 91.2009C81.5713 91.2009 81.7813 91.8409 84.3513 91.8309C86.2513 91.8209 88.3413 91.8009 90.2913 90.5109C92.4313 89.0909 94.3313 86.1909 94.3113 82.8509C94.2813 78.0609 90.3113 74.5309 86.6613 73.7309V73.7409Z" fill="#FFDFBD"/>
<path d="M95.6012 78.2009C98.1693 78.2009 100.251 76.119 100.251 73.5509C100.251 70.9828 98.1693 68.9009 95.6012 68.9009C93.033 68.9009 90.9512 70.9828 90.9512 73.5509C90.9512 76.119 93.033 78.2009 95.6012 78.2009Z" fill="#443E39"/>
<path d="M80.9712 80.5209L82.7312 79.0509C83.6612 78.2709 83.1112 76.7609 81.9012 76.7609C81.0212 76.5809 79.9012 76.4409 78.6112 76.4509C77.5012 76.4609 76.5312 76.6009 75.7312 76.7609C75.1912 76.7609 74.7012 77.1009 74.5112 77.6209C74.3412 78.1009 74.4312 78.6709 74.9012 79.0609L76.6612 80.5309C77.9112 81.5709 79.7112 81.5709 80.9612 80.5309L80.9712 80.5209Z" fill="#443E39"/>
<path d="M143.851 120.621C137.021 124.251 128.531 121.661 124.901 114.831L109.611 86.0809C109.321 85.5309 109.531 84.851 110.071 84.561L132.831 72.4509C133.381 72.1609 134.061 72.3709 134.351 72.9109C135.831 75.1309 148.571 94.4609 150.791 105.291C151.511 108.811 151.051 111.081 150.671 112.331C149.311 116.871 145.641 119.501 143.851 120.611V120.621Z" fill="#FF8B22"/>
<path d="M13.8012 120.621C20.6312 124.251 29.1212 121.661 32.7512 114.831L48.0412 86.0809C48.3312 85.5309 48.1212 84.851 47.5812 84.561L24.8212 72.4509C24.2712 72.1609 23.5912 72.3709 23.3012 72.9109C21.8212 75.1309 9.08121 94.4609 6.86121 105.291C6.14121 108.811 6.60121 111.081 6.98121 112.331C8.34121 116.871 12.0112 119.501 13.8012 120.611V120.621Z" fill="#FF8B22"/>
<path d="M78.8214 80.9609V83.6409L72.9814 86.2509" stroke="#443E39" stroke-miterlimit="10" stroke-linecap="round"/>
<path d="M78.8213 80.9609V83.6409L84.6613 86.2509" stroke="#443E39" stroke-miterlimit="10" stroke-linecap="round"/>
<path d="M132.771 124.571C135.081 124.011 137.811 123.551 140.881 123.381C146.981 123.041 152.101 124.011 155.751 125.031C155.961 125.031 156.551 125.061 157.001 125.501C157.601 126.081 157.701 127.131 157.181 128.051C156.671 128.891 155.901 130.171 155.031 131.771C152.751 135.941 151.931 138.241 151.151 139.791C149.401 143.261 144.281 147.481 138.901 149.661C131.481 152.681 124.881 151.581 121.811 151.031C116.731 150.121 112.881 148.241 110.531 146.871C117.941 139.441 125.351 132.011 132.761 124.581L132.771 124.571Z" fill="#FF8B22"/>
<mask id="mask0_217_1649" style="mask-type:luminance" maskUnits="userSpaceOnUse" x="110" y="123" width="48" height="29">
<path d="M132.771 124.571C135.081 124.011 137.811 123.551 140.881 123.381C146.981 123.041 152.101 124.011 155.751 125.031C155.961 125.031 156.551 125.061 157.001 125.501C157.601 126.081 157.701 127.131 157.181 128.051C156.671 128.891 155.901 130.171 155.031 131.771C152.751 135.941 151.931 138.241 151.151 139.791C149.401 143.261 144.281 147.481 138.901 149.661C131.481 152.681 124.881 151.581 121.811 151.031C116.731 150.121 112.881 148.241 110.531 146.871C117.941 139.441 125.351 132.011 132.761 124.581L132.771 124.571Z" fill="white"/>
</mask>
<g mask="url(#mask0_217_1649)">
<path d="M143.621 123.311H136.301C136.961 123.691 137.661 124.071 138.411 124.441C140.391 125.421 142.291 126.141 144.021 126.661C143.161 127.041 142.201 127.541 141.201 128.201C139.211 129.511 137.781 130.991 136.811 132.181C136.751 132.281 136.641 132.521 136.711 132.771C136.821 133.141 137.331 133.411 137.931 133.301L146.011 132.801C144.691 135.841 143.371 138.891 142.051 141.931C142.041 141.971 141.911 142.411 142.181 142.741C142.441 143.061 142.981 143.131 143.421 142.851C145.171 141.971 146.921 141.091 148.671 140.211C146.611 143.471 144.551 146.731 142.491 149.991L162.081 130.291L159.981 123.321H143.631L143.621 123.311Z" fill="#FFDFBD"/>
</g>
<path d="M62.0414 78.2009C64.6095 78.2009 66.6914 76.119 66.6914 73.5509C66.6914 70.9828 64.6095 68.9009 62.0414 68.9009C59.4732 68.9009 57.3914 70.9828 57.3914 73.5509C57.3914 76.119 59.4732 78.2009 62.0414 78.2009Z" fill="#443E39"/>
<mask id="mask1_217_1649" style="mask-type:luminance" maskUnits="userSpaceOnUse" x="21" y="21" width="116" height="130">
<path d="M78.8213 21.9109C37.7313 21.9109 21.3513 51.4609 21.3513 80.7509V104.341C21.3513 129.881 32.0613 150.591 68.8213 150.591H88.8113C125.571 150.591 136.281 129.881 136.281 104.341V80.7509C136.281 51.4709 119.901 21.9109 78.8113 21.9109H78.8213Z" fill="white"/>
</mask>
<g mask="url(#mask1_217_1649)">
<path d="M112.411 174.861C104.981 204.841 91.7811 181.211 75.9011 181.561C56.6211 181.991 45.8711 186.691 41.9611 169.541C36.1711 144.181 31.8711 124.001 43.8711 109.801C55.3011 96.2909 75.0511 95.8309 78.8911 95.8209C82.3711 95.8209 100.991 95.7909 112.071 108.051C125.061 122.431 119.811 144.971 112.411 174.851V174.861Z" fill="#FFDFBD"/>
</g>
<path d="M99.2008 60.3174C99.5257 61.9421 97.5827 63.3968 94.8749 63.9382C91.4308 64.6268 89.8428 64.0607 89.518 62.436C89.1931 60.8113 90.0493 59.6828 93.8552 58.663C97.8105 57.8277 98.876 58.6927 99.2008 60.3174Z" fill="#FFDFBD"/>
<path d="M58.43 60.3174C58.1052 61.9421 60.0482 63.3968 62.756 63.9382C66.2001 64.6268 67.7881 64.0607 68.1129 62.436C68.4377 60.8113 67.5816 59.6828 63.7757 58.663C59.8203 57.8277 58.7548 58.6927 58.43 60.3174Z" fill="#FFDFBD"/>
</svg>
