<svg width="164" height="165" viewBox="0 0 164 165" fill="none" xmlns="http://www.w3.org/2000/svg">
<path d="M94.7854 23.4912C97.7654 20.9312 103.625 16.4612 110.585 14.9912C113.795 14.3112 115.785 14.5812 117.355 15.4812C118.095 15.9012 119.335 16.8112 120.795 19.8212C121.525 21.3212 123.575 25.9612 123.655 39.9212C123.655 40.6312 123.655 41.2012 123.655 41.5512C114.035 35.5312 104.415 29.5212 94.7954 23.5012L94.7854 23.4912Z" fill="#EFEEE8"/>
<path d="M97.4155 24.5012C99.2355 23.2712 104.436 19.9012 109.226 19.1212C110.536 18.9112 111.786 18.8912 112.926 19.5312C114.226 20.2712 114.866 21.5912 115.326 22.9612C116.986 27.9112 116.846 35.0812 116.776 37.2412L97.4155 24.5112V24.5012Z" fill="#FFC9BB"/>
<path d="M64.0855 23.4912C61.1055 20.9312 55.2455 16.4612 48.2855 14.9912C45.0755 14.3112 43.0855 14.5812 41.5155 15.4812C40.7755 15.9012 39.5355 16.8112 38.0755 19.8212C37.3455 21.3212 35.2955 25.9612 35.2155 39.9212C35.2155 40.6312 35.2155 41.2012 35.2155 41.5512C44.8355 35.5312 54.4555 29.5212 64.0755 23.5012L64.0855 23.4912Z" fill="#EFEEE8"/>
<path d="M61.4555 24.5012C59.6355 23.2712 54.4355 19.9012 49.6455 19.1212C48.3355 18.9112 47.0855 18.8912 45.9455 19.5312C44.6455 20.2712 44.0055 21.5912 43.5455 22.9612C41.8855 27.9112 42.0255 35.0812 42.0955 37.2412L61.4555 24.5112V24.5012Z" fill="#FFC9BB"/>
<path d="M79.4355 21.9213C38.3455 21.9213 21.9655 51.4713 21.9655 80.7613V104.351C21.9655 129.891 32.6755 150.601 69.4355 150.601H89.4255C126.185 150.601 136.895 129.891 136.895 104.351V80.7613C136.895 51.4813 120.515 21.9213 79.4255 21.9213H79.4355Z" fill="#EFEEE8"/>
<path d="M68.3555 164.001H62.5455C58.4755 164.001 55.4055 162.021 54.4155 156.351L52.8755 147.761H75.7355V156.631C75.7355 160.701 72.4355 164.001 68.3655 164.001H68.3555Z" fill="#EFEEE8"/>
<path d="M90.5155 164.001H96.3255C100.396 164.001 103.465 162.021 104.455 156.351L105.995 147.761H83.1355V156.631C83.1355 160.701 86.4355 164.001 90.5055 164.001H90.5155Z" fill="#EFEEE8"/>
<path d="M62.6554 78.2113C65.2235 78.2113 67.3054 76.1294 67.3054 73.5613C67.3054 70.9931 65.2235 68.9113 62.6554 68.9113C60.0872 68.9113 58.0054 70.9931 58.0054 73.5613C58.0054 76.1294 60.0872 78.2113 62.6554 78.2113Z" fill="#443E39"/>
<path d="M96.2154 78.2113C98.7836 78.2113 100.865 76.1294 100.865 73.5613C100.865 70.9931 98.7836 68.9113 96.2154 68.9113C93.6473 68.9113 91.5654 70.9931 91.5654 73.5613C91.5654 76.1294 93.6473 78.2113 96.2154 78.2113Z" fill="#443E39"/>
<path d="M81.5855 80.5312L83.3455 79.0612C84.2755 78.2812 83.7255 76.7712 82.5155 76.7712C81.6355 76.5912 80.5155 76.4512 79.2255 76.4612C78.1155 76.4712 77.1455 76.6112 76.3455 76.7712C75.8055 76.7712 75.3155 77.1112 75.1255 77.6312C74.9555 78.1112 75.0455 78.6812 75.5155 79.0712L77.2755 80.5412C78.5255 81.5812 80.3255 81.5812 81.5755 80.5412L81.5855 80.5312Z" fill="#FFC9BB"/>
<path d="M144.465 120.631C137.635 124.261 129.145 121.671 125.515 114.841L110.225 86.0912C109.935 85.5412 110.145 84.8612 110.685 84.5712L133.445 72.4612C133.995 72.1712 134.675 72.3812 134.965 72.9212C136.445 75.1412 149.185 94.4712 151.405 105.301C152.125 108.821 151.665 111.091 151.285 112.341C149.925 116.881 146.255 119.511 144.465 120.621V120.631Z" fill="#EFEEE8"/>
<path d="M14.4155 120.631C21.2455 124.261 29.7355 121.671 33.3655 114.841L48.6555 86.0912C48.9455 85.5412 48.7355 84.8612 48.1955 84.5712L25.4355 72.4612C24.8855 72.1712 24.2055 72.3812 23.9155 72.9212C22.4355 75.1412 9.69547 94.4712 7.47547 105.301C6.75547 108.821 7.21547 111.091 7.59547 112.341C8.95547 116.881 12.6255 119.511 14.4155 120.621V120.631Z" fill="#EFEEE8"/>
<path d="M79.4355 80.9712V83.6512L73.5955 86.2612" stroke="#FFC9BB" stroke-miterlimit="10" stroke-linecap="round"/>
<path d="M79.4354 80.9712V83.6512L85.2754 86.2612" stroke="#FFC9BB" stroke-miterlimit="10" stroke-linecap="round"/>
<path d="M126.795 137.231C128.405 137.711 131.215 138.321 134.695 137.891C135.935 137.741 138.505 137.401 141.275 135.841C142.995 134.871 146.025 132.741 148.395 129.261C149.465 127.681 150.115 126.241 151.775 125.701C152.085 125.601 153.575 125.151 154.985 125.971C156.335 126.761 156.695 128.191 156.775 128.511C157.185 130.141 156.585 131.841 155.325 133.731C148.925 143.361 138.295 145.771 138.295 145.771C136.925 146.081 132.495 146.971 126.895 145.991C123.515 145.401 120.835 144.331 119.005 143.441C121.605 141.371 124.205 139.301 126.805 137.231H126.795Z" fill="#EFEEE8"/>
</svg>
