<svg width="164" height="164" viewBox="0 0 164 164" fill="none" xmlns="http://www.w3.org/2000/svg">
<path d="M68.3211 28.3007C66.1612 24.5207 62.8512 19.3708 58.0412 13.9008C51.6812 6.66083 48.0813 2.57086 44.2813 3.13085C38.5413 3.98085 35.7713 14.9308 33.3013 24.5707C31.6613 30.9507 29.8513 40.4207 29.7913 52.4006C42.6413 44.3706 55.4812 36.3307 68.3311 28.3007H68.3211Z" fill="#FF8B22"/>
<path d="M64.8211 29.6508C63.1511 26.6608 60.4411 22.3808 56.3112 17.8709C52.3012 13.5009 50.1712 11.2209 47.9012 11.6109C44.0412 12.2809 42.4212 20.2308 40.9112 27.5908C39.2912 35.5208 38.9812 42.1807 38.9812 46.6507L64.8311 29.6508H64.8211Z" fill="#FFDFBD"/>
<path d="M89.3208 28.3007C91.4808 24.5207 94.7908 19.3708 99.6008 13.9008C105.971 6.66083 109.561 2.57086 113.371 3.13085C119.111 3.98085 121.881 14.9308 124.351 24.5707C125.991 30.9507 127.801 40.4207 127.861 52.4006C115.011 44.3706 102.171 36.3307 89.3208 28.3007Z" fill="#FF8B22"/>
<path d="M92.8308 29.6508C94.5008 26.6608 97.2108 22.3808 101.341 17.8709C105.351 13.5009 107.481 11.2209 109.751 11.6109C113.611 12.2809 115.231 20.2308 116.741 27.5908C118.361 35.5208 118.671 42.1807 118.671 46.6507L92.8208 29.6508H92.8308Z" fill="#FFDFBD"/>
<path d="M78.8209 21.9108C37.7311 21.9108 21.3512 51.4606 21.3512 80.7505V104.34C21.3512 129.88 32.0612 150.59 68.821 150.59H88.8109C125.571 150.59 136.281 129.88 136.281 104.34V80.7505C136.281 51.4706 119.901 21.9108 78.8109 21.9108H78.8209Z" fill="#FF8B22"/>
<path d="M67.7409 164H61.9309C57.8609 164 54.7909 162.02 53.801 156.35L52.261 147.76H75.1208V156.63C75.1208 160.7 71.8209 164 67.7509 164H67.7409Z" fill="#FF8B22"/>
<path d="M89.901 164H95.711C99.781 164 102.851 162.02 103.841 156.35L105.381 147.76H82.5211V156.63C82.5211 160.7 85.821 164 89.891 164H89.901Z" fill="#FF8B22"/>
<path d="M86.6609 73.7405C84.3709 73.2405 82.4309 73.8605 81.4109 74.2805C80.9809 74.4005 80.2109 74.5805 79.3409 74.6505C79.1309 74.6705 78.9709 74.6705 78.8209 74.6705C77.9709 74.6705 77.6309 74.5205 76.2309 74.2805C75.2509 73.9205 72.181 73.5105 70.431 73.8805C67.851 74.4305 63.341 77.7305 63.331 82.8605C63.321 86.4105 65.471 89.3704 67.711 90.7104C69.551 91.8104 71.451 91.8204 73.291 91.8304C75.8609 91.8504 76.1009 91.2104 78.8209 91.2004C81.5709 91.2004 81.7809 91.8404 84.3509 91.8304C86.2509 91.8204 88.3409 91.8004 90.2909 90.5104C92.4309 89.0905 94.3308 86.1905 94.3108 82.8505C94.2808 78.0605 90.3109 74.5305 86.6609 73.7305V73.7405Z" fill="#FFDFBD"/>
<path d="M95.6007 78.2005C98.1688 78.2005 100.251 76.1186 100.251 73.5505C100.251 70.9824 98.1688 68.9005 95.6007 68.9005C93.0326 68.9005 90.9507 70.9824 90.9507 73.5505C90.9507 76.1186 93.0326 78.2005 95.6007 78.2005Z" fill="#443E39"/>
<path d="M80.9708 80.5205L82.7308 79.0505C83.6608 78.2705 83.1108 76.7605 81.9008 76.7605C81.0208 76.5805 79.9008 76.4405 78.6108 76.4505C77.5008 76.4605 76.5308 76.6005 75.7308 76.7605C75.1908 76.7605 74.7008 77.1005 74.5108 77.6205C74.3408 78.1005 74.4308 78.6705 74.9008 79.0605L76.6608 80.5305C77.9108 81.5705 79.7108 81.5705 80.9608 80.5305L80.9708 80.5205Z" fill="#443E39"/>
<path d="M143.851 120.62C137.021 124.25 128.531 121.66 124.901 114.83L109.611 86.0805C109.321 85.5305 109.531 84.8505 110.071 84.5605L132.831 72.4506C133.381 72.1606 134.061 72.3706 134.351 72.9106C135.831 75.1306 148.571 94.4605 150.791 105.29C151.511 108.81 151.051 111.08 150.671 112.33C149.311 116.87 145.641 119.5 143.851 120.61V120.62Z" fill="#FF8B22"/>
<path d="M13.8011 120.62C20.6311 124.25 29.1211 121.66 32.751 114.83L48.041 86.0805C48.331 85.5305 48.121 84.8505 47.581 84.5605L24.8211 72.4506C24.2711 72.1606 23.5911 72.3706 23.3011 72.9106C21.8211 75.1306 9.08117 94.4605 6.86118 105.29C6.14118 108.81 6.60118 111.08 6.98118 112.33C8.34117 116.87 12.0112 119.5 13.8011 120.61V120.62Z" fill="#FF8B22"/>
<path d="M78.821 80.9605V83.6405L72.9811 86.2505" stroke="#443E39" stroke-width="0.999995" stroke-miterlimit="10" stroke-linecap="round"/>
<path d="M78.8209 80.9605V83.6405L84.6609 86.2505" stroke="#443E39" stroke-width="0.999995" stroke-miterlimit="10" stroke-linecap="round"/>
<path d="M132.771 124.57C135.081 124.01 137.811 123.55 140.881 123.38C146.98 123.04 152.1 124.01 155.75 125.03C155.96 125.03 156.55 125.06 157 125.5C157.6 126.08 157.7 127.13 157.18 128.05C156.67 128.89 155.9 130.17 155.03 131.77C152.75 135.94 151.93 138.24 151.15 139.79C149.4 143.26 144.28 147.48 138.901 149.66C131.481 152.68 124.881 151.58 121.811 151.03C116.731 150.12 112.881 148.24 110.531 146.87C117.941 139.44 125.351 132.01 132.761 124.58L132.771 124.57Z" fill="#FF8B22"/>
<mask id="mask0_217_1649" style="mask-type:luminance" maskUnits="userSpaceOnUse" x="110" y="123" width="48" height="29">
<path d="M132.771 124.57C135.081 124.01 137.811 123.55 140.881 123.38C146.98 123.04 152.1 124.01 155.75 125.03C155.96 125.03 156.55 125.06 157 125.5C157.6 126.08 157.7 127.13 157.18 128.05C156.67 128.89 155.9 130.17 155.03 131.77C152.75 135.94 151.93 138.24 151.15 139.79C149.4 143.26 144.28 147.48 138.901 149.66C131.481 152.68 124.881 151.58 121.811 151.03C116.731 150.12 112.881 148.24 110.531 146.87C117.941 139.44 125.351 132.01 132.761 124.58L132.771 124.57Z" fill="white"/>
</mask>
<g mask="url(#mask0_217_1649)">
<path d="M143.621 123.31H136.301C136.961 123.69 137.661 124.07 138.411 124.44C140.391 125.42 142.291 126.14 144.021 126.66C143.161 127.04 142.201 127.54 141.201 128.2C139.211 129.51 137.781 130.99 136.811 132.18C136.751 132.28 136.641 132.52 136.711 132.77C136.821 133.14 137.331 133.41 137.931 133.3L146.011 132.8C144.691 135.84 143.371 138.89 142.051 141.93C142.041 141.97 141.911 142.41 142.181 142.74C142.441 143.06 142.981 143.13 143.421 142.85C145.171 141.97 146.92 141.09 148.67 140.21C146.611 143.47 144.551 146.73 142.491 149.99L162.08 130.29L159.98 123.32H143.631L143.621 123.31Z" fill="#FFDFBD"/>
</g>
<path d="M62.041 78.2005C64.6091 78.2005 66.691 76.1186 66.691 73.5505C66.691 70.9824 64.6091 68.9005 62.041 68.9005C59.4729 68.9005 57.3911 70.9824 57.3911 73.5505C57.3911 76.1186 59.4729 78.2005 62.041 78.2005Z" fill="#443E39"/>
<mask id="mask1_217_1649" style="mask-type:luminance" maskUnits="userSpaceOnUse" x="21" y="21" width="116" height="130">
<path d="M78.8209 21.9108C37.7311 21.9108 21.3512 51.4606 21.3512 80.7505V104.34C21.3512 129.88 32.0612 150.59 68.821 150.59H88.8109C125.571 150.59 136.281 129.88 136.281 104.34V80.7505C136.281 51.4706 119.901 21.9108 78.8109 21.9108H78.8209Z" fill="white"/>
</mask>
<g mask="url(#mask1_217_1649)">
<path d="M112.411 174.86C104.981 204.84 91.7807 181.21 75.9007 181.56C56.6208 181.99 45.8709 186.69 41.9609 169.54C36.171 144.18 31.871 124 43.8709 109.8C55.3009 96.2904 75.0508 95.8304 78.8907 95.8204C82.3707 95.8204 100.991 95.7904 112.071 108.05C125.06 122.43 119.811 144.97 112.411 174.85V174.86Z" fill="#FFDFBD"/>
</g>
<path d="M99.2003 60.3171C99.5251 61.9418 97.5822 63.3965 94.8744 63.9379C91.4303 64.6264 89.8423 64.0603 89.5175 62.4356C89.1927 60.8109 90.0488 59.6825 93.8547 58.6627C97.81 57.8274 98.8755 58.6924 99.2003 60.3171Z" fill="#FFDFBD"/>
<path d="M58.4297 60.3171C58.1049 61.9418 60.0478 63.3965 62.7557 63.9379C66.1998 64.6264 67.7877 64.0603 68.1125 62.4356C68.4374 60.8109 67.5812 59.6825 63.7753 58.6627C59.82 57.8274 58.7545 58.6924 58.4297 60.3171Z" fill="#FFDFBD"/>
</svg>
