<svg width="40" height="40" viewBox="0 0 40 40" fill="none" xmlns="http://www.w3.org/2000/svg">
<circle cx="20" cy="20" r="20" fill="#EEE9E6"/>
<path d="M15.61 32H14.87C14.39 32 14 31.61 14 31.13V11.73H16.49V31.13C16.49 31.61 16.1 32 15.62 32H15.61Z" fill="#FFA300"/>
<path d="M15.2399 8L14.6599 9.74H15.8199L15.2399 8Z" fill="#FFA300"/>
<path d="M14.66 9.73999L14 11.73H16.49L15.82 9.73999H14.66Z" fill="#EAD9BE"/>
<path d="M18.83 32H18.09C17.61 32 17.22 31.61 17.22 31.13V11.73H19.71V31.13C19.71 31.61 19.32 32 18.84 32H18.83Z" fill="#B69FFF"/>
<path d="M18.4599 8L17.8799 9.74H19.0399L18.4599 8Z" fill="#B69FFF"/>
<path d="M17.88 9.73999L17.21 11.73H19.7L19.04 9.73999H17.88Z" fill="#EAD9BE"/>
<path d="M22.0399 32H21.2999C20.8199 32 20.4299 31.61 20.4299 31.13V11.73H22.9199V31.13C22.9199 31.61 22.5299 32 22.0499 32H22.0399Z" fill="#F970E0"/>
<path d="M21.6701 8L21.0901 9.74H22.2501L21.6701 8Z" fill="#F970E0"/>
<path d="M21.0899 9.73999L20.4299 11.73H22.9099L22.2499 9.73999H21.0899Z" fill="#EAD9BE"/>
<path d="M25.2599 32H24.5199C24.0399 32 23.6499 31.61 23.6499 31.13V11.73H26.1399V31.13C26.1399 31.61 25.7499 32 25.2699 32H25.2599Z" fill="#86F7CB"/>
<path d="M24.88 8L24.3 9.74H25.46L24.88 8Z" fill="#86F7CB"/>
<path d="M24.2999 9.73999L23.6399 11.73H26.1299L25.4599 9.73999H24.2999Z" fill="#EAD9BE"/>
</svg>
