<svg width="40" height="40" viewBox="0 0 40 40" fill="none" xmlns="http://www.w3.org/2000/svg">
<circle cx="20" cy="20" r="20" fill="#FFD629" fill-opacity="0.3"/>
<g clip-path="url(#clip0_204_1161)">
<path d="M30.817 22.354C31.1929 21.9846 31.4913 21.5438 31.6944 21.0575C31.8976 20.5711 32.0015 20.0491 32 19.522C31.9999 18.8075 31.8026 18.1068 31.4298 17.4972C31.0569 16.8875 30.5231 16.3927 29.887 16.067C29.4202 13.7893 28.1814 11.7426 26.3798 10.2729C24.5783 8.80309 22.3245 8.00037 19.9995 8.00037C17.6745 8.00037 15.4207 8.80309 13.6192 10.2729C11.8176 11.7426 10.5788 13.7893 10.112 16.067C9.47618 16.3929 8.9426 16.8879 8.56997 17.4974C8.19734 18.107 8.00011 18.8076 8 19.522C8.00117 20.4567 8.33018 21.3613 8.92972 22.0784C9.52925 22.7954 10.3613 23.2794 11.281 23.446C11.6327 24.1294 12.0663 24.7674 12.572 25.346C11.3272 26.7195 10.492 28.4142 10.161 30.238C10.1263 30.432 10.1301 30.6309 10.1723 30.8234C10.2145 31.0159 10.2941 31.1982 10.4068 31.3599C10.5194 31.5215 10.6628 31.6594 10.8288 31.7657C10.9947 31.8719 11.18 31.9444 11.374 31.979C11.4619 31.9934 11.5509 32.0005 11.64 32C11.9916 31.9994 12.3318 31.8753 12.6012 31.6494C12.8706 31.4235 13.0521 31.1102 13.114 30.764C13.3473 29.4823 13.9364 28.292 14.814 27.329C16.3445 28.3762 18.146 28.9567 20 29C21.8553 28.9574 23.6583 28.3769 25.19 27.329C26.0676 28.292 26.6567 29.4823 26.89 30.764C26.9518 31.1095 27.1327 31.4223 27.4013 31.6482C27.6698 31.874 28.0091 31.9985 28.36 32C28.4492 31.9998 28.5381 31.9921 28.626 31.977C28.82 31.9424 29.0053 31.8699 29.1712 31.7637C29.3372 31.6574 29.4806 31.5195 29.5932 31.3579C29.7059 31.1962 29.7855 31.0139 29.8277 30.8214C29.8699 30.6289 29.8737 30.43 29.839 30.236C29.508 28.4122 28.6728 26.7175 27.428 25.344C27.9339 24.7655 28.3675 24.1275 28.719 23.444C29.5131 23.3029 30.2451 22.9226 30.817 22.354ZM28 20.508H27.989H27.827C27.4965 20.4834 27.1671 20.5679 26.8893 20.7486C26.6115 20.9292 26.4006 21.196 26.289 21.508C25.7784 22.7787 24.915 23.8768 23.8007 24.6727C22.6863 25.4686 21.3676 25.9292 20 26C18.6308 25.9293 17.3106 25.4679 16.1954 24.6704C15.0802 23.8729 14.2167 22.7728 13.707 21.5C13.6037 21.2078 13.4123 20.9547 13.1593 20.7756C12.9063 20.5966 12.604 20.5003 12.294 20.5C12.252 20.5 12.211 20.5 12.169 20.505H12.001H11.99C11.7285 20.5056 11.4774 20.4024 11.2918 20.2181C11.1063 20.0339 11.0013 19.7836 11 19.522C11.0007 19.3153 11.0738 19.1154 11.2066 18.957C11.3394 18.7986 11.5236 18.6918 11.727 18.655C12.0457 18.5968 12.337 18.4369 12.5573 18.1993C12.7775 17.9618 12.915 17.6592 12.949 17.337C13.143 15.4816 14.0638 13.7785 15.51 12.6C15.5289 13.4807 15.8062 14.3364 16.3075 15.0608C16.8087 15.7852 17.5118 16.3463 18.3293 16.6743C19.1469 17.0024 20.0428 17.083 20.9057 16.906C21.7687 16.729 22.5606 16.3024 23.183 15.679C23.3285 15.5411 23.4449 15.3754 23.5252 15.1917C23.6056 15.008 23.6483 14.8101 23.6508 14.6096C23.6534 14.4091 23.6157 14.2102 23.54 14.0245C23.4644 13.8388 23.3523 13.6702 23.2103 13.5286C23.0684 13.387 22.8995 13.2753 22.7137 13.2001C22.5278 13.1249 22.3288 13.0877 22.1283 13.0907C21.9279 13.0937 21.73 13.1369 21.5465 13.2177C21.363 13.2985 21.1976 13.4152 21.06 13.561C20.7744 13.834 20.3946 13.9863 19.9995 13.9863C19.6045 13.9863 19.2246 13.834 18.939 13.561C18.7291 13.3513 18.5861 13.0839 18.5282 12.7929C18.4702 12.5018 18.5 12.2001 18.6135 11.9259C18.7271 11.6518 18.9195 11.4174 19.1663 11.2526C19.4131 11.0878 19.7032 10.9999 20 11C21.7511 10.9958 23.4415 11.6416 24.7438 12.8123C26.046 13.983 26.8675 15.5954 27.049 17.337C27.0831 17.6595 27.2209 17.9622 27.4415 18.1999C27.6622 18.4375 27.9539 18.5972 28.273 18.655C28.4764 18.6918 28.6606 18.7986 28.7934 18.957C28.9262 19.1154 28.9993 19.3153 29 19.522C29.0003 19.6523 28.9746 19.7812 28.9245 19.9014C28.8743 20.0216 28.8007 20.1306 28.708 20.222C28.6147 20.3141 28.5041 20.3868 28.3826 20.4359C28.2611 20.485 28.1311 20.5095 28 20.508Z" fill="#F3C500"/>
<path d="M17.5002 21.0001C18.3287 21.0001 19.0002 20.3285 19.0002 19.5001C19.0002 18.6717 18.3287 18.0001 17.5002 18.0001C16.6718 18.0001 16.0002 18.6717 16.0002 19.5001C16.0002 20.3285 16.6718 21.0001 17.5002 21.0001Z" fill="#F3C500"/>
<path d="M22.4998 21.0001C23.3282 21.0001 23.9998 20.3285 23.9998 19.5001C23.9998 18.6717 23.3282 18.0001 22.4998 18.0001C21.6713 18.0001 20.9998 18.6717 20.9998 19.5001C20.9998 20.3285 21.6713 21.0001 22.4998 21.0001Z" fill="#F3C500"/>
</g>
<defs>
<clipPath id="clip0_204_1161">
<rect width="24" height="24" fill="white" transform="translate(8 8)"/>
</clipPath>
</defs>
</svg>
