<svg width="40" height="40" viewBox="0 0 40 40" fill="none" xmlns="http://www.w3.org/2000/svg">
<circle cx="20" cy="20" r="20" fill="#FFD629" fill-opacity="0.3"/>
<g clip-path="url(#clip0_204_1016)">
<path d="M30.817 22.3541C31.1929 21.9847 31.4913 21.5439 31.6944 21.0575C31.8976 20.5712 32.0015 20.0492 32 19.5221C31.9999 18.8075 31.8026 18.1068 31.4298 17.4972C31.0569 16.8876 30.5231 16.3927 29.887 16.0671C29.4202 13.7894 28.1814 11.7427 26.3798 10.2729C24.5783 8.80315 22.3245 8.00043 19.9995 8.00043C17.6745 8.00043 15.4207 8.80315 13.6192 10.2729C11.8176 11.7427 10.5788 13.7894 10.112 16.0671C9.47618 16.393 8.9426 16.8879 8.56997 17.4975C8.19734 18.1071 8.00011 18.8077 8 19.5221C8.00117 20.4568 8.33018 21.3614 8.92972 22.0784C9.52925 22.7954 10.3613 23.2794 11.281 23.4461C11.6327 24.1294 12.0663 24.7674 12.572 25.3461C11.3272 26.7196 10.492 28.4143 10.161 30.2381C10.1263 30.4321 10.1301 30.631 10.1723 30.8235C10.2145 31.016 10.2941 31.1982 10.4068 31.3599C10.5194 31.5216 10.6628 31.6595 10.8288 31.7657C10.9947 31.872 11.18 31.9445 11.374 31.9791C11.4619 31.9935 11.5509 32.0005 11.64 32.0001C11.9916 31.9995 12.3318 31.8754 12.6012 31.6495C12.8706 31.4236 13.0521 31.1102 13.114 30.7641C13.3473 29.4823 13.9364 28.292 14.814 27.3291C16.3445 28.3763 18.146 28.9567 20 29.0001C21.8553 28.9575 23.6583 28.377 25.19 27.3291C26.0676 28.292 26.6567 29.4823 26.89 30.7641C26.9518 31.1095 27.1327 31.4224 27.4013 31.6482C27.6698 31.874 28.0091 31.9986 28.36 32.0001C28.4492 31.9999 28.5381 31.9922 28.626 31.9771C28.82 31.9425 29.0053 31.87 29.1712 31.7637C29.3372 31.6575 29.4806 31.5196 29.5932 31.3579C29.7059 31.1962 29.7855 31.014 29.8277 30.8215C29.8699 30.629 29.8737 30.4301 29.839 30.2361C29.508 28.4123 28.6728 26.7176 27.428 25.3441C27.9339 24.7656 28.3675 24.1275 28.719 23.4441C29.5131 23.303 30.2451 22.9227 30.817 22.3541ZM28 20.5081H27.989H27.827C27.4965 20.4835 27.1671 20.568 26.8893 20.7486C26.6115 20.9293 26.4006 21.1961 26.289 21.5081C25.7784 22.7788 24.915 23.8768 23.8007 24.6728C22.6863 25.4687 21.3676 25.9293 20 26.0001C18.6308 25.9293 17.3106 25.4679 16.1954 24.6705C15.0802 23.873 14.2167 22.7728 13.707 21.5001C13.6037 21.2078 13.4123 20.9548 13.1593 20.7757C12.9063 20.5966 12.604 20.5004 12.294 20.5001C12.252 20.5001 12.211 20.5001 12.169 20.5051H12.001H11.99C11.7285 20.5056 11.4774 20.4025 11.2918 20.2182C11.1063 20.0339 11.0013 19.7836 11 19.5221C11.0007 19.3154 11.0738 19.1155 11.2066 18.9571C11.3394 18.7987 11.5236 18.6918 11.727 18.6551C12.0457 18.5968 12.337 18.437 12.5573 18.1994C12.7775 17.9618 12.915 17.6593 12.949 17.3371C13.143 15.4817 14.0638 13.7785 15.51 12.6001C15.5289 13.4808 15.8062 14.3365 16.3075 15.0609C16.8087 15.7853 17.5118 16.3463 18.3293 16.6744C19.1469 17.0025 20.0428 17.083 20.9057 16.9061C21.7687 16.7291 22.5606 16.3024 23.183 15.6791C23.3285 15.5412 23.4449 15.3754 23.5252 15.1918C23.6056 15.0081 23.6483 14.8101 23.6508 14.6097C23.6534 14.4092 23.6157 14.2102 23.54 14.0246C23.4644 13.8389 23.3523 13.6703 23.2103 13.5287C23.0684 13.3871 22.8995 13.2754 22.7137 13.2002C22.5278 13.1249 22.3288 13.0877 22.1283 13.0908C21.9279 13.0938 21.73 13.137 21.5465 13.2178C21.363 13.2985 21.1976 13.4153 21.06 13.5611C20.7744 13.834 20.3946 13.9863 19.9995 13.9863C19.6045 13.9863 19.2246 13.834 18.939 13.5611C18.7291 13.3513 18.5861 13.084 18.5282 12.7929C18.4702 12.5019 18.5 12.2002 18.6135 11.926C18.7271 11.6518 18.9195 11.4175 19.1663 11.2527C19.4131 11.0879 19.7032 11 20 11.0001C21.7511 10.9959 23.4415 11.6416 24.7438 12.8124C26.046 13.9831 26.8675 15.5954 27.049 17.3371C27.0831 17.6596 27.2209 17.9623 27.4415 18.1999C27.6622 18.4375 27.9539 18.5972 28.273 18.6551C28.4764 18.6918 28.6606 18.7987 28.7934 18.9571C28.9262 19.1155 28.9993 19.3154 29 19.5221C29.0003 19.6523 28.9746 19.7813 28.9245 19.9015C28.8743 20.0217 28.8007 20.1307 28.708 20.2221C28.6147 20.3142 28.5041 20.3869 28.3826 20.436C28.2611 20.485 28.1311 20.5096 28 20.5081Z" fill="#F3C500"/>
<path d="M17.5002 21.0001C18.3287 21.0001 19.0002 20.3285 19.0002 19.5001C19.0002 18.6716 18.3287 18.0001 17.5002 18.0001C16.6718 18.0001 16.0002 18.6716 16.0002 19.5001C16.0002 20.3285 16.6718 21.0001 17.5002 21.0001Z" fill="#F3C500"/>
<path d="M22.4998 21.0001C23.3282 21.0001 23.9998 20.3285 23.9998 19.5001C23.9998 18.6716 23.3282 18.0001 22.4998 18.0001C21.6713 18.0001 20.9998 18.6716 20.9998 19.5001C20.9998 20.3285 21.6713 21.0001 22.4998 21.0001Z" fill="#F3C500"/>
</g>
<defs>
<clipPath id="clip0_204_1016">
<rect width="24" height="24" fill="white" transform="translate(8 8)"/>
</clipPath>
</defs>
</svg>
