<svg width="40" height="40" viewBox="0 0 40 40" fill="none" xmlns="http://www.w3.org/2000/svg">
<circle cx="20" cy="20" r="20" fill="#EEE9E6"/>
<path d="M27.2087 9H12.7913C12.0781 9 11.5 9.49982 11.5 10.1164V29.8836C11.5 30.5002 12.0781 31 12.7913 31H27.2087C27.9219 31 28.5 30.5002 28.5 29.8836V10.1164C28.5 9.49982 27.9219 9 27.2087 9Z" fill="white"/>
<path d="M21.5603 12.31C21.8363 12.3102 22.0603 12.534 22.0603 12.81C22.0603 13.086 21.8363 13.3098 21.5603 13.31H14.45C14.1738 13.31 13.95 13.0861 13.95 12.81C13.95 12.5339 14.1738 12.31 14.45 12.31H21.5603Z" fill="#C4C4C4"/>
<path d="M25.2397 11.5C25.5159 11.5 25.7397 11.7239 25.7397 12V13.7197C25.7397 13.9959 25.5159 14.2197 25.2397 14.2197H23.52C23.2439 14.2197 23.02 13.9959 23.02 13.7197V12C23.02 11.7239 23.2439 11.5 23.52 11.5H25.2397ZM24.02 13.2197H24.7397V12.5H24.02V13.2197Z" fill="#C4C4C4"/>
<path d="M21.5603 16.36C21.8363 16.3602 22.0603 16.584 22.0603 16.86C22.0603 17.136 21.8363 17.3598 21.5603 17.36H14.45C14.1738 17.36 13.95 17.1361 13.95 16.86C13.95 16.5838 14.1738 16.36 14.45 16.36H21.5603Z" fill="#C4C4C4"/>
<path d="M25.2397 15.55C25.5159 15.55 25.7397 15.7738 25.7397 16.05V17.7697C25.7397 18.0459 25.5159 18.2697 25.2397 18.2697H23.52C23.2439 18.2697 23.02 18.0459 23.02 17.7697V16.05C23.02 15.7738 23.2439 15.55 23.52 15.55H25.2397ZM24.02 17.2697H24.7397V16.55H24.02V17.2697Z" fill="#C4C4C4"/>
<path d="M21.5603 20.41C21.8363 20.4102 22.0603 20.6339 22.0603 20.91C22.0603 21.186 21.8363 21.4098 21.5603 21.41H14.45C14.1738 21.41 13.95 21.1861 13.95 20.91C13.95 20.6338 14.1738 20.41 14.45 20.41H21.5603Z" fill="#C4C4C4"/>
<path d="M25.2397 19.6C25.5159 19.6 25.7397 19.8239 25.7397 20.1V21.8198C25.7397 22.0959 25.5159 22.3198 25.2397 22.3198H23.52C23.2439 22.3198 23.02 22.0959 23.02 21.8198V20.1C23.02 19.8239 23.2439 19.6 23.52 19.6H25.2397ZM24.02 21.3198H24.7397V20.6H24.02V21.3198Z" fill="#C4C4C4"/>
</svg>
