<svg width="40" height="40" viewBox="0 0 40 40" fill="none" xmlns="http://www.w3.org/2000/svg">
<circle cx="20" cy="20" r="20" fill="#EEE9E6"/>
<path d="M18.0774 13.1144C18.0774 13.1144 17.4555 12.5128 17.771 11.6307C18.0864 10.7486 18.3515 10.8073 18.6884 10.2208C18.9735 9.71979 18.4309 9.10387 18.3935 9.06033C18.1321 8.7248 17.7918 8.6098 17.3759 8.46925C16.96 8.3287 16.6198 8.2137 16.2006 8.31923C16.1529 8.33402 15.3249 8.48676 15.2289 9.05165C15.1221 9.70562 15.3642 9.82863 15.0487 10.7107C14.7333 11.5929 13.8617 11.6897 13.8617 11.6897L10.2982 10.4854C9.40021 10.1819 8.40991 10.6403 8.09445 11.5224L7.1218 14.2423C7.1218 14.2423 7.22139 15.0896 8.12881 15.3962C9.03623 15.7029 9.1533 15.4644 9.83549 15.5713C10.4166 15.6647 10.577 16.4605 10.5889 16.516C10.6975 16.9235 10.5792 17.2543 10.4346 17.6586C10.29 18.0629 10.1717 18.3937 9.82656 18.6478C9.78506 18.675 9.14819 19.2116 8.63282 18.9344C8.03895 18.6101 8.08986 18.3492 7.18244 18.0426C6.27502 17.7359 5.65624 18.3404 5.65624 18.3404L4.56858 21.3819C4.25641 22.2548 4.72793 23.2175 5.63534 23.5242L17.0064 27.367C17.9044 27.6705 18.8947 27.2121 19.2101 26.33L20.2978 23.2885C20.2978 23.2885 20.1982 22.4412 19.2908 22.1346C18.3834 21.8279 18.2663 22.0664 17.5841 21.9595C17.003 21.8661 16.8426 21.0703 16.8307 21.0148C16.7221 20.6074 16.8404 20.2766 16.985 19.8723C17.1296 19.468 17.2479 19.1372 17.593 18.883C17.6345 18.8559 18.2714 18.3192 18.7868 18.5964C19.3807 18.9207 19.3297 19.1816 20.2372 19.4882C21.1446 19.7949 21.7634 19.1904 21.7634 19.1904L22.736 16.4705C23.0482 15.5976 22.5767 14.6349 21.6693 14.3282L18.0868 13.1176L18.0774 13.1144Z" fill="#40F07B"/>
<path d="M21.7659 19.2352C21.7659 19.2352 21.1421 19.8347 20.2373 19.5209C19.3325 19.207 19.395 18.9498 18.7944 18.6176C18.2814 18.3363 17.6434 18.8587 17.5983 18.8947C17.251 19.1461 17.13 19.4759 16.982 19.8791C16.834 20.2822 16.7129 20.6121 16.8181 21.0204C16.8329 21.0668 16.9833 21.873 17.5635 21.971C18.2354 22.0801 18.3639 21.8458 19.2687 22.1596C20.1735 22.4735 20.266 23.3215 20.266 23.3215L18.9981 26.7757C18.6786 27.6462 19.142 28.6126 20.0468 28.9264L22.8367 29.8941C22.8367 29.8941 23.709 29.8042 24.0319 28.9247C24.3547 28.0451 24.1104 27.9293 24.2259 27.267C24.3268 26.7029 25.1466 26.5535 25.2038 26.5424C25.6238 26.4402 25.9632 26.5579 26.3779 26.7017C26.7926 26.8456 27.1319 26.9633 27.3905 27.3009C27.4181 27.3414 27.9649 27.9649 27.6755 28.4636C27.3371 29.0383 27.0692 28.9866 26.7463 29.8662C26.4235 30.7458 27.0403 31.3523 27.0403 31.3523L30.16 32.4344C31.0554 32.745 32.0495 32.2945 32.3723 31.4149L36.4181 20.3926C36.7376 19.5222 36.2742 18.5558 35.3694 18.242L32.2497 17.1598C32.2497 17.1598 31.3773 17.2497 31.0544 18.1293C30.7316 19.0089 30.976 19.1246 30.8604 19.7869C30.7596 20.351 29.9397 20.5004 29.8825 20.5116C29.4625 20.6138 29.1232 20.4961 28.7085 20.3522C28.2938 20.2084 27.9545 20.0907 27.6959 19.7531C27.6683 19.7125 27.1215 19.0891 27.4108 18.5903C27.7492 18.0157 28.0172 18.0673 28.34 17.1877C28.6629 16.3081 28.0461 15.7017 28.0461 15.7017L25.2563 14.734C24.3609 14.4234 23.3668 14.8739 23.0439 15.7535L21.7693 19.226L21.7659 19.2352Z" fill="#FFAA00"/>
</svg>
