<svg width="39" height="33" viewBox="0 0 39 33" fill="none" xmlns="http://www.w3.org/2000/svg">
<mask id="mask0_217_2695" style="mask-type:alpha" maskUnits="userSpaceOnUse" x="-1" y="-7" width="40" height="40">
<circle cx="19" cy="13" r="20" fill="#FFDAC7"/>
</mask>
<g mask="url(#mask0_217_2695)">
<path d="M16.6637 6.90263C16.1368 5.98068 15.3295 4.72459 14.1564 3.39045C12.6051 1.62461 11.7271 0.627054 10.8003 0.763638C9.40026 0.970954 8.72465 3.64167 8.12221 5.99288C7.72221 7.54897 7.28075 9.85871 7.26611 12.7806C10.4003 10.8221 13.532 8.86116 16.6661 6.90263H16.6637Z" fill="#FF8B22"/>
<path d="M15.8103 7.23199C15.4029 6.50272 14.742 5.45883 13.7346 4.35883C12.7566 3.29298 12.2371 2.73689 11.6834 2.83201C10.742 2.99542 10.3468 4.93444 9.97854 6.72955C9.58342 8.66369 9.50781 10.2881 9.50781 11.3783L15.8127 7.23199H15.8103Z" fill="#FFDFBD"/>
<path d="M21.7856 6.90263C22.3125 5.98068 23.1198 4.72459 24.293 3.39045C25.8466 1.62461 26.7222 0.627054 27.6515 0.763638C29.0515 0.970954 29.7271 3.64167 30.3295 5.99288C30.7295 7.54897 31.171 9.85871 31.1856 12.7806C28.0515 10.8221 24.9198 8.86116 21.7856 6.90263Z" fill="#FF8B22"/>
<path d="M22.6416 7.23199C23.0489 6.50272 23.7099 5.45883 24.7172 4.35883C25.6953 3.29298 26.2148 2.73689 26.7684 2.83201C27.7099 2.99542 28.105 4.93444 28.4733 6.72955C28.8684 8.66369 28.944 10.2881 28.944 11.3783L22.6392 7.23199H22.6416Z" fill="#FFDFBD"/>
<path d="M19.2246 5.34399C9.20264 5.34399 5.20752 12.5513 5.20752 19.6951V25.4488C5.20752 31.678 7.81972 36.7292 16.7856 36.7292H21.6612C30.627 36.7292 33.2392 31.678 33.2392 25.4488V19.6951C33.2392 12.5537 29.2441 5.34399 19.2222 5.34399H19.2246Z" fill="#FF8B22"/>
<path d="M21.137 17.9856C20.5785 17.8636 20.1053 18.0148 19.8565 18.1173C19.7517 18.1466 19.5639 18.1905 19.3517 18.2075C19.3004 18.2124 19.2614 18.2124 19.2248 18.2124C19.0175 18.2124 18.9346 18.1758 18.5931 18.1173C18.3541 18.0295 17.6053 17.9295 17.1785 18.0197C16.5492 18.1539 15.4492 18.9587 15.4468 20.21C15.4443 21.0758 15.9687 21.7978 16.5151 22.1246C16.9639 22.3929 17.4273 22.3953 17.8761 22.3977C18.5029 22.4026 18.5614 22.2465 19.2248 22.2441C19.8956 22.2441 19.9468 22.4002 20.5736 22.3977C21.037 22.3953 21.5468 22.3904 22.0224 22.0758C22.5443 21.7295 23.0078 21.0221 23.0029 20.2075C22.9956 19.0392 22.0273 18.1783 21.137 17.9831V17.9856Z" fill="#FFDFBD"/>
<path d="M23.3173 19.0732C23.9436 19.0732 24.4514 18.5654 24.4514 17.9391C24.4514 17.3127 23.9436 16.8049 23.3173 16.8049C22.6909 16.8049 22.1831 17.3127 22.1831 17.9391C22.1831 18.5654 22.6909 19.0732 23.3173 19.0732Z" fill="#443E39"/>
<path d="M19.7493 19.639L20.1786 19.2805C20.4054 19.0903 20.2713 18.722 19.9761 18.722C19.7615 18.6781 19.4883 18.6439 19.1737 18.6464C18.903 18.6488 18.6664 18.6829 18.4713 18.722C18.3396 18.722 18.22 18.8049 18.1737 18.9317C18.1322 19.0488 18.1542 19.1878 18.2688 19.2829L18.6981 19.6415C19.003 19.8951 19.442 19.8951 19.7469 19.6415L19.7493 19.639Z" fill="#443E39"/>
<path d="M35.0857 29.4195C33.4199 30.3049 31.3491 29.6732 30.4638 28.0073L26.7345 20.9952C26.6638 20.861 26.715 20.6952 26.8467 20.6244L32.3979 17.6708C32.5321 17.6 32.6979 17.6513 32.7686 17.783C33.1296 18.3244 36.2369 23.039 36.7784 25.6805C36.954 26.539 36.8418 27.0927 36.7491 27.3976C36.4174 28.5049 35.5223 29.1463 35.0857 29.4171V29.4195Z" fill="#FF8B22"/>
<path d="M3.36613 29.4195C5.03198 30.3049 7.10271 29.6732 7.98808 28.0073L11.7173 20.9952C11.7881 20.861 11.7369 20.6952 11.6052 20.6244L6.05393 17.6708C5.91978 17.6 5.75393 17.6513 5.6832 17.783C5.32222 18.3244 2.21491 23.039 1.67344 25.6805C1.49783 26.539 1.61003 27.0927 1.70271 27.3976C2.03442 28.5049 2.92954 29.1463 3.36613 29.4171V29.4195Z" fill="#FF8B22"/>
<path d="M19.2247 19.7466V20.4002L17.8003 21.0368" stroke="#443E39" stroke-miterlimit="10" stroke-linecap="round"/>
<path d="M19.2246 19.7466V20.4002L20.649 21.0368" stroke="#443E39" stroke-miterlimit="10" stroke-linecap="round"/>
<path d="M32.3834 30.3831C32.9468 30.2465 33.6126 30.1343 34.3614 30.0928C35.8492 30.0099 37.098 30.2465 37.9883 30.4952C38.0395 30.4952 38.1834 30.5026 38.2931 30.6099C38.4395 30.7513 38.4639 31.0074 38.337 31.2318C38.2126 31.4367 38.0248 31.7489 37.8126 32.1391C37.2565 33.1562 37.0565 33.7172 36.8663 34.0952C36.4395 34.9416 35.1907 35.9708 33.8785 36.5025C32.0687 37.2391 30.459 36.9708 29.7102 36.8367C28.4712 36.6147 27.5322 36.1562 26.959 35.822C28.7663 34.0099 30.5736 32.1977 32.3809 30.3855L32.3834 30.3831Z" fill="#FF8B22"/>
<mask id="mask1_217_2695" style="mask-type:luminance" maskUnits="userSpaceOnUse" x="26" y="30" width="13" height="7">
<path d="M32.3834 30.3831C32.9468 30.2465 33.6126 30.1343 34.3614 30.0928C35.8492 30.0099 37.098 30.2465 37.9883 30.4952C38.0395 30.4952 38.1834 30.5026 38.2931 30.6099C38.4395 30.7513 38.4639 31.0074 38.337 31.2318C38.2126 31.4367 38.0248 31.7489 37.8126 32.1391C37.2565 33.1562 37.0565 33.7172 36.8663 34.0952C36.4395 34.9416 35.1907 35.9708 33.8785 36.5025C32.0687 37.2391 30.459 36.9708 29.7102 36.8367C28.4712 36.6147 27.5322 36.1562 26.959 35.822C28.7663 34.0099 30.5736 32.1977 32.3809 30.3855L32.3834 30.3831Z" fill="white"/>
</mask>
<g mask="url(#mask1_217_2695)">
<path d="M35.0295 30.0757H33.2441C33.4051 30.1684 33.5758 30.261 33.7588 30.3513C34.2417 30.5903 34.7051 30.7659 35.1271 30.8928C34.9173 30.9854 34.6832 31.1074 34.4393 31.2684C33.9539 31.5879 33.6051 31.9488 33.3685 32.2391C33.3539 32.2635 33.3271 32.322 33.3441 32.383C33.371 32.4732 33.4954 32.5391 33.6417 32.5123L35.6124 32.3903C35.2905 33.1318 34.9685 33.8757 34.6466 34.6171C34.6441 34.6269 34.6124 34.7342 34.6783 34.8147C34.7417 34.8927 34.8734 34.9098 34.9807 34.8415C35.4076 34.6269 35.8344 34.4122 36.2612 34.1976C35.7588 34.9927 35.2563 35.7878 34.7539 36.583L39.5319 31.7781L39.0197 30.0781H35.0319L35.0295 30.0757Z" fill="#FFDFBD"/>
</g>
<path d="M15.1322 19.0732C15.7586 19.0732 16.2663 18.5654 16.2663 17.9391C16.2663 17.3127 15.7586 16.8049 15.1322 16.8049C14.5058 16.8049 13.998 17.3127 13.998 17.9391C13.998 18.5654 14.5058 19.0732 15.1322 19.0732Z" fill="#443E39"/>
<mask id="mask2_217_2695" style="mask-type:luminance" maskUnits="userSpaceOnUse" x="5" y="5" width="29" height="32">
<path d="M19.2246 5.34399C9.20264 5.34399 5.20752 12.5513 5.20752 19.6951V25.4488C5.20752 31.678 7.81972 36.7292 16.7856 36.7292H21.6612C30.627 36.7292 33.2392 31.678 33.2392 25.4488V19.6951C33.2392 12.5537 29.2441 5.34399 19.2222 5.34399H19.2246Z" fill="white"/>
</mask>
<g mask="url(#mask2_217_2695)">
<path d="M27.4174 42.6486C25.6052 49.9607 22.3856 44.1973 18.5125 44.2827C13.81 44.3876 11.1881 45.5339 10.2344 41.351C8.82223 35.1657 7.77345 30.2437 10.7003 26.7803C13.4881 23.4852 18.3052 23.373 19.2417 23.3706C20.0905 23.3706 24.632 23.3633 27.3344 26.3535C30.5027 29.8608 29.2222 35.3583 27.4174 42.6461V42.6486Z" fill="#FFDFBD"/>
</g>
<path d="M24.1952 14.7115C24.2744 15.1077 23.8006 15.4626 23.1401 15.5946C22.3001 15.7625 21.9128 15.6245 21.8335 15.2282C21.7543 14.8319 21.9631 14.5567 22.8914 14.308C23.8561 14.1042 24.116 14.3152 24.1952 14.7115Z" fill="#FFDFBD"/>
<path d="M14.2511 14.7115C14.1718 15.1077 14.6457 15.4626 15.3062 15.5946C16.1462 15.7625 16.5335 15.6245 16.6127 15.2282C16.692 14.8319 16.4832 14.5567 15.5549 14.308C14.5902 14.1042 14.3303 14.3152 14.2511 14.7115Z" fill="#FFDFBD"/>
</g>
</svg>
