<svg width="25" height="25" viewBox="0 0 25 25" fill="none" xmlns="http://www.w3.org/2000/svg">
<g clip-path="url(#clip0_309_2734)">
<path d="M21.3658 9.02877C21.2257 8.74146 20.9784 8.52067 20.6771 8.41396C20.3758 8.30725 20.0446 8.32315 19.7549 8.45824C19.4652 8.59333 19.2401 8.8368 19.1282 9.13621C19.0163 9.43562 19.0264 9.76702 19.1564 10.059C19.5151 10.8282 19.7188 11.6605 19.7558 12.5084C19.7929 13.3563 19.6625 14.2032 19.3722 15.0007C19.082 15.7983 18.6374 16.5308 18.0641 17.1565C17.4907 17.7823 16.7997 18.2889 16.0305 18.6476C15.7432 18.7877 15.5224 19.0351 15.4157 19.3364C15.3089 19.6377 15.3248 19.9688 15.4599 20.2585C15.595 20.5482 15.8385 20.7733 16.1379 20.8852C16.4373 20.9972 16.7687 20.987 17.0607 20.857C18.1201 20.3631 19.0718 19.6653 19.8615 18.8036C20.6512 17.9418 21.2634 16.9329 21.6632 15.8346C22.0629 14.7362 22.2425 13.5698 22.1914 12.4021C22.1404 11.2343 21.8599 10.0881 21.3658 9.02877Z" fill="#242634"/>
<path d="M17.5803 14.3483C17.8454 13.6149 17.8608 12.8144 17.624 12.0713C17.3872 11.3283 16.9116 10.6842 16.2711 10.2393L17.9723 5.56548C18.0333 5.39753 18.0568 5.21819 18.0408 5.04017C18.0249 4.86216 17.97 4.68982 17.8801 4.53537C17.7902 4.38092 17.6674 4.24813 17.5204 4.14641C17.3735 4.04469 17.206 3.97653 17.0297 3.94675C14.6281 3.54996 12.1647 4.06143 10.1196 5.38153L9.54527 5.1725C8.43119 4.76838 7.20231 4.82271 6.12824 5.32355C5.05417 5.8244 4.22264 6.73086 3.8161 7.84405L2.85546 10.4834C2.45134 11.5975 2.50566 12.8264 3.00651 13.9004C3.50736 14.9745 4.41382 15.806 5.52701 16.2126L6.10284 16.4222C6.81955 18.7488 8.37681 20.7252 10.4712 21.9663C10.5347 22.0039 10.6017 22.0355 10.6712 22.0607C10.975 22.1713 11.3103 22.1567 11.6033 22.02C11.8963 21.8834 12.1231 21.6359 12.2337 21.3321L13.9362 16.6544C14.7129 16.7253 15.4912 16.5377 16.1502 16.1207C16.8092 15.7036 17.312 15.0806 17.5803 14.3483ZM10.4993 18.9685C9.40553 17.9664 8.63882 16.6582 8.29907 15.2142C8.25286 15.0169 8.15822 14.8343 8.0237 14.6828C7.88917 14.5313 7.71901 14.4157 7.5286 14.3465L6.3609 13.9215C5.85454 13.7372 5.44212 13.3593 5.21439 12.8709C4.98666 12.3825 4.96226 11.8237 5.14656 11.3173L6.10721 8.67795C6.29151 8.17158 6.66942 7.75917 7.15779 7.53144C7.64617 7.3037 8.20501 7.2793 8.71137 7.4636L9.87907 7.88861C10.0694 7.95799 10.2741 7.97882 10.4745 7.94924C10.6749 7.91966 10.8648 7.84059 11.027 7.71918C12.2155 6.83139 13.6437 6.32204 15.1258 6.25747L10.4993 18.9685Z" fill="#242634"/>
</g>
<defs>
<clipPath id="clip0_309_2734">
<rect width="19.2717" height="19.2717" fill="white" transform="translate(6.67115) scale(1.01211) rotate(20)"/>
</clipPath>
</defs>
</svg>
