<svg width="30" height="36" viewBox="0 0 30 36" fill="none" xmlns="http://www.w3.org/2000/svg">
<path d="M17.2378 36C17.0324 36 16.8541 35.9316 16.7027 35.7948C16.5622 35.6686 16.4757 35.495 16.4432 35.274C16.1946 33.5484 15.9243 32.0965 15.6324 30.918C15.3514 29.7501 14.973 28.7874 14.4973 28.0298C14.0216 27.2722 13.3946 26.6673 12.6162 26.2148C11.8486 25.7624 10.8649 25.3994 9.66487 25.1258C8.47568 24.8417 7.00541 24.5892 5.25405 24.3683C5.01622 24.3472 4.82703 24.263 4.68649 24.1157C4.54595 23.9684 4.47568 23.7896 4.47568 23.5791C4.47568 23.3792 4.54595 23.2056 4.68649 23.0583C4.82703 22.911 5.01622 22.8268 5.25405 22.8058C7.00541 22.6164 8.48108 22.3902 9.68108 22.1271C10.8811 21.8641 11.8703 21.5011 12.6486 21.0381C13.427 20.5752 14.0541 19.9597 14.5297 19.1916C15.0054 18.4235 15.3838 17.4502 15.6649 16.2718C15.9568 15.0829 16.2162 13.6203 16.4432 11.8843C16.4757 11.6738 16.5622 11.5055 16.7027 11.3792C16.8541 11.2424 17.0324 11.174 17.2378 11.174C17.4541 11.174 17.6324 11.2424 17.773 11.3792C17.9135 11.5055 18.0054 11.6738 18.0486 11.8843C18.2757 13.6203 18.5297 15.0829 18.8108 16.2718C19.1027 17.4502 19.4811 18.4235 19.9459 19.1916C20.4216 19.9597 21.0487 20.5752 21.827 21.0381C22.6054 21.5011 23.5946 21.8641 24.7946 22.1271C25.9946 22.3902 27.4757 22.6164 29.2378 22.8058C29.4649 22.8268 29.6486 22.911 29.7892 23.0583C29.9297 23.2056 30 23.3792 30 23.5791C30 23.7896 29.9297 23.9684 29.7892 24.1157C29.6486 24.263 29.4649 24.3472 29.2378 24.3683C27.4757 24.5577 25.9946 24.7839 24.7946 25.0469C23.5946 25.31 22.6054 25.673 21.827 26.1359C21.0487 26.5883 20.4216 27.1986 19.9459 27.9667C19.4811 28.7348 19.1027 29.7133 18.8108 30.9022C18.5297 32.0912 18.2757 33.5484 18.0486 35.274C18.0054 35.495 17.9135 35.6686 17.773 35.7948C17.6324 35.9316 17.4541 36 17.2378 36ZM6.24324 18.5445C5.91892 18.5445 5.73514 18.3709 5.69189 18.0237C5.56216 16.9715 5.42162 16.1455 5.27027 15.5458C5.12973 14.9461 4.8973 14.4989 4.57297 14.2043C4.25946 13.8992 3.78378 13.6677 3.14595 13.5099C2.51892 13.352 1.65405 13.1837 0.551351 13.0048C0.183784 12.9522 0 12.7733 0 12.4682C0 12.1736 0.162162 12 0.486486 11.9474C1.6 11.737 2.47568 11.5528 3.11351 11.395C3.75135 11.2267 4.23243 10.9952 4.55676 10.7006C4.88108 10.406 5.11892 9.96931 5.27027 9.39062C5.42162 8.8014 5.56216 7.98071 5.69189 6.92854C5.73514 6.58132 5.91892 6.40772 6.24324 6.40772C6.56757 6.40772 6.75135 6.57606 6.79459 6.91276C6.93514 7.97545 7.07568 8.81192 7.21622 9.42218C7.36757 10.0324 7.6 10.4954 7.91351 10.811C8.23784 11.1162 8.71892 11.3424 9.35676 11.4897C9.99459 11.637 10.8757 11.7896 12 11.9474C12.1405 11.9579 12.2541 12.0105 12.3405 12.1052C12.4378 12.1999 12.4865 12.3209 12.4865 12.4682C12.4865 12.7628 12.3243 12.9417 12 13.0048C10.8757 13.2153 9.99459 13.4046 9.35676 13.573C8.72973 13.7308 8.25405 13.9623 7.92973 14.2674C7.61622 14.562 7.38378 15.0039 7.23243 15.5932C7.08108 16.1824 6.93514 17.0031 6.79459 18.0552C6.77297 18.192 6.71351 18.3078 6.61622 18.4025C6.51892 18.4972 6.39459 18.5445 6.24324 18.5445ZM14.0919 7.6861C13.8865 7.6861 13.7676 7.58089 13.7351 7.37045C13.6054 6.72863 13.4919 6.22359 13.3946 5.85533C13.3081 5.48707 13.1676 5.20824 12.973 5.01885C12.7892 4.81894 12.5027 4.66111 12.1135 4.54537C11.7243 4.42964 11.1784 4.3139 10.4757 4.19816C10.2595 4.15607 10.1514 4.03507 10.1514 3.83516C10.1514 3.64577 10.2595 3.53003 10.4757 3.48794C11.1784 3.36168 11.7243 3.24594 12.1135 3.14073C12.5027 3.02499 12.7892 2.87242 12.973 2.68303C13.1676 2.48312 13.3081 2.19904 13.3946 1.83078C13.4919 1.46252 13.6054 0.957475 13.7351 0.315651C13.7676 0.105217 13.8865 0 14.0919 0C14.2865 0 14.4054 0.105217 14.4486 0.315651C14.5676 0.957475 14.6757 1.46252 14.773 1.83078C14.8703 2.19904 15.0108 2.48312 15.1946 2.68303C15.3892 2.87242 15.6811 3.02499 16.0703 3.14073C16.4595 3.24594 17.0054 3.36168 17.7081 3.48794C17.9243 3.53003 18.0324 3.64577 18.0324 3.83516C18.0324 4.03507 17.9243 4.15607 17.7081 4.19816C17.0054 4.3139 16.4595 4.42964 16.0703 4.54537C15.6811 4.66111 15.3892 4.81894 15.1946 5.01885C15.0108 5.20824 14.8703 5.48707 14.773 5.85533C14.6757 6.22359 14.5676 6.72863 14.4486 7.37045C14.4054 7.58089 14.2865 7.6861 14.0919 7.6861Z" fill="#242634"/>
</svg>
