<svg width="24" height="24" viewBox="0 0 24 24" fill="none" xmlns="http://www.w3.org/2000/svg">
<g clip-path="url(#clip0_262_5189)">
<path d="M22.9745 8.69518L15.8885 1.60919C13.7391 -0.534728 10.26 -0.534728 8.11053 1.60919L1.02454 8.69518C0.36604 9.35016 -0.00305299 10.2413 -0.000474865 11.1702V21.5481C0.00172826 22.9028 1.09991 24 2.45455 24.0011H21.5445C22.8991 24.0001 23.9973 22.9028 23.9995 21.5481V11.1702C24.0021 10.2413 23.633 9.35016 22.9745 8.69518ZM20.9995 21.0012H15.9995V17.8191C15.9995 15.7105 14.2901 14.0011 12.1815 14.0011H11.8175C9.70891 14.0011 7.99953 15.7105 7.99953 17.8191V21.0012H2.99952V11.1702C2.99985 11.0376 3.05225 10.9104 3.14553 10.8162L10.2315 3.73019C11.2077 2.75373 12.7906 2.75355 13.7671 3.72972C13.7672 3.72986 13.7674 3.73004 13.7675 3.73019L20.8535 10.8162C20.9467 10.9104 20.9992 11.0376 20.9995 11.1702V21.0012H20.9995Z" fill="#242634"/>
</g>
<defs>
<clipPath id="clip0_262_5189">
<rect width="24" height="24" fill="white"/>
</clipPath>
</defs>
</svg>
