<svg width="24" height="24" viewBox="0 0 24 24" fill="none" xmlns="http://www.w3.org/2000/svg">
<path d="M4.93901 10.561L9.52501 15.146C10.1916 15.7828 11.0781 16.1382 12 16.1382C12.9219 16.1382 13.8084 15.7828 14.475 15.146L19.061 10.561C19.3424 10.2796 19.5005 9.89794 19.5005 9.49999C19.5005 9.10204 19.3424 8.72038 19.061 8.43899C18.7796 8.15759 18.398 7.99951 18 7.99951C17.6021 7.99951 17.2204 8.15759 16.939 8.43899L12.353 13.025C12.2592 13.1187 12.1321 13.1714 11.9995 13.1714C11.8669 13.1714 11.7398 13.1187 11.646 13.025L7.06101 8.43899C6.77961 8.15759 6.39796 7.9995 6.00001 7.9995C5.60206 7.9995 5.2204 8.15759 4.93901 8.43899C4.65761 8.72038 4.49953 9.10203 4.49953 9.49999C4.49953 9.89794 4.65761 10.2796 4.93901 10.561Z" fill="#242634"/>
</svg>
