<svg width="16" height="16" viewBox="0 0 16 16" fill="none" xmlns="http://www.w3.org/2000/svg">
<path d="M7.99805 1.24097C8.27954 1.24097 8.54973 1.26085 8.79688 1.28882H8.7998C10.3316 1.46596 11.5295 2.11567 12.1953 2.54956L12.3291 2.64624C12.5966 2.86488 12.7844 3.18151 12.8311 3.55347C12.837 3.59046 12.8419 3.62845 12.8438 3.66675C12.861 4.03331 12.8857 4.81813 12.8857 5.68628V5.68921C12.8816 7.15782 12.8556 8.02544 12.5527 9.07495L12.5537 9.07593C12.1623 10.4434 11.5014 11.3836 11.1768 11.8425C10.1474 13.2985 9.18013 14.1344 8.85059 14.3816C8.84539 14.3855 8.84023 14.3895 8.83496 14.3933C8.73011 14.4688 8.64198 14.5316 8.58398 14.573C8.25089 14.8109 7.80626 14.8217 7.46191 14.6003C7.37852 14.5467 7.27819 14.4735 7.17578 14.3962V14.3972C7.16895 14.3924 7.1624 14.3868 7.15527 14.3816C7.15341 14.3802 7.15128 14.3791 7.14941 14.3777V14.3767C6.99051 14.2604 6.76069 14.0647 6.5 13.8123V13.8113C6.05383 13.3829 5.45511 12.7334 4.82617 11.8494L4.82422 11.8474C4.49978 11.3889 3.8399 10.4484 3.44824 9.08081L3.44727 9.08179C3.14372 8.03118 3.11839 7.16295 3.11426 5.69312L3.11523 5.69214C3.11107 4.81452 3.14019 4.02388 3.15723 3.66187H3.1582C3.17852 3.18506 3.43417 2.79573 3.76855 2.56421L3.77148 2.56226C4.30649 2.19446 5.11641 1.74202 6.17871 1.47046L6.18848 1.46851C6.45108 1.40401 7.14219 1.24099 7.99805 1.24097ZM7.99805 3.24097C7.38207 3.24099 6.87413 3.35953 6.66504 3.41089L6.66406 3.40991C6.03126 3.5729 5.5218 3.82543 5.14355 4.05737C5.12874 4.45278 5.11117 5.04597 5.11426 5.6853V5.68726C5.11788 6.9778 5.14384 7.60821 5.2959 8.24976L5.36914 8.5271L5.37012 8.52905C5.66466 9.55818 6.16007 10.2718 6.45605 10.6902L6.66113 10.9705C7.13466 11.6015 7.5692 12.0663 7.8877 12.3718L7.8916 12.3748C7.92997 12.4119 7.96803 12.4446 8.00195 12.4763C8.3608 12.1427 8.93385 11.5512 9.54395 10.6882C9.83978 10.2701 10.3359 9.5557 10.6309 8.52515L10.6318 8.52319C10.8491 7.77129 10.8816 7.15884 10.8857 5.68628L10.8721 4.53589C10.8679 4.3626 10.8601 4.20611 10.8555 4.07202C10.3156 3.75313 9.51982 3.38599 8.57031 3.27612V3.27515C8.37984 3.25365 8.1872 3.24097 7.99805 3.24097Z" fill="#C1BCBC"/>
<path d="M6.95189 10.7444L8.68897 9.56152L6.95189 8.43656L8.68897 7.05104L6.95189 5.86817L8.68897 4.59845L6.95189 3.50244L8.68897 2.29063C8.46977 2.26581 8.23816 2.24927 8.00241 2.24927C7.26622 2.24927 6.66652 2.38989 6.43077 2.44779C5.50847 2.68354 4.80537 3.07645 4.34215 3.39491C4.23461 3.46936 4.1643 3.58516 4.16017 3.71751C4.14362 4.06906 4.11467 4.84247 4.11881 5.6986C4.12294 7.17098 4.15189 7.9113 4.41246 8.81293C4.75574 10.0123 5.33476 10.8395 5.64495 11.2779C6.23638 12.1092 6.79473 12.7131 7.20005 13.1018L8.68897 11.9066L6.95189 10.7527V10.7444Z" fill="#FF4431"/>
<path d="M11.6544 3.39065C11.0588 3.00187 10.0083 2.43525 8.68483 2.28223L6.94775 3.49404L8.68483 4.59005L6.94775 5.85977L8.68483 7.04264L6.94775 8.42816L8.68483 9.55312L6.94775 10.736L8.68483 11.8899L7.19591 13.0852C7.45647 13.3375 7.65499 13.5029 7.75425 13.5732C7.85765 13.6518 7.9445 13.7138 8.00241 13.7511C8.06031 13.7097 8.14716 13.6477 8.25056 13.5732C8.49871 13.3871 9.39207 12.6261 10.3599 11.2571C10.6701 10.8187 11.2491 9.99153 11.5924 8.79212C11.8529 7.89049 11.8819 7.15017 11.886 5.67779C11.886 4.8258 11.8612 4.05652 11.8446 3.70497C11.8405 3.56849 11.7702 3.45268 11.6544 3.37824V3.39065Z" fill="#EAEAEA"/>
</svg>
