<svg width="30" height="30" viewBox="0 0 30 30" fill="none" xmlns="http://www.w3.org/2000/svg">
<circle cx="15" cy="15" r="15" fill="#EEE9E6"/>
<path d="M17.1208 14.9998L20.9998 11.1168C21.2517 10.8305 21.3851 10.4591 21.3729 10.0781C21.3607 9.69698 21.2039 9.33485 20.9343 9.06526C20.6647 8.79567 20.3026 8.63885 19.9215 8.62668C19.5405 8.61452 19.1691 8.74791 18.8828 8.99976L14.9998 12.8788L11.1098 8.98776C10.9705 8.84843 10.8051 8.7379 10.623 8.6625C10.441 8.58709 10.2459 8.54828 10.0488 8.54828C9.85179 8.54828 9.65667 8.58709 9.47462 8.6625C9.29258 8.7379 9.12717 8.84843 8.98783 8.98776C8.8485 9.12709 8.73798 9.2925 8.66257 9.47455C8.58716 9.6566 8.54835 9.85171 8.54835 10.0488C8.54835 10.2458 8.58716 10.4409 8.66257 10.623C8.73798 10.805 8.8485 10.9704 8.98783 11.1098L12.8788 14.9998L8.99983 18.8818C8.84771 19.0177 8.72492 19.1833 8.639 19.3684C8.55307 19.5535 8.50581 19.7541 8.5001 19.9581C8.49439 20.1621 8.53036 20.3651 8.6058 20.5547C8.68124 20.7443 8.79457 20.9165 8.93885 21.0607C9.08314 21.205 9.25534 21.3184 9.44493 21.3938C9.63452 21.4692 9.83751 21.5052 10.0415 21.4995C10.2454 21.4938 10.4461 21.4465 10.6312 21.3606C10.8162 21.2747 10.9818 21.1519 11.1178 20.9998L14.9998 17.1208L18.8778 20.9998C19.1592 21.2812 19.5409 21.4392 19.9388 21.4392C20.3368 21.4392 20.7184 21.2812 20.9998 20.9998C21.2812 20.7184 21.4393 20.3367 21.4393 19.9388C21.4393 19.5408 21.2812 19.1592 20.9998 18.8778L17.1208 14.9998Z" fill="#374957"/>
</svg>
