<svg width="15" height="18" viewBox="0 0 15 18" fill="none" xmlns="http://www.w3.org/2000/svg">
<path d="M8.61892 18C8.51622 18 8.42703 17.9658 8.35135 17.8974C8.28108 17.8343 8.23784 17.7475 8.22162 17.637C8.0973 16.7742 7.96216 16.0482 7.81622 15.459C7.67568 14.8751 7.48649 14.3937 7.24865 14.0149C7.01081 13.6361 6.6973 13.3336 6.30811 13.1074C5.92432 12.8812 5.43243 12.6997 4.83243 12.5629C4.23784 12.4209 3.5027 12.2946 2.62703 12.1841C2.50811 12.1736 2.41351 12.1315 2.34324 12.0579C2.27297 11.9842 2.23784 11.8948 2.23784 11.7896C2.23784 11.6896 2.27297 11.6028 2.34324 11.5292C2.41351 11.4555 2.50811 11.4134 2.62703 11.4029C3.5027 11.3082 4.24054 11.1951 4.84054 11.0636C5.44054 10.932 5.93514 10.7505 6.32432 10.5191C6.71351 10.2876 7.02703 9.97983 7.26486 9.59579C7.5027 9.21175 7.69189 8.72512 7.83243 8.13591C7.97838 7.54143 8.10811 6.81017 8.22162 5.94213C8.23784 5.83691 8.28108 5.75274 8.35135 5.68961C8.42703 5.62122 8.51622 5.58702 8.61892 5.58702C8.72703 5.58702 8.81622 5.62122 8.88649 5.68961C8.95676 5.75274 9.0027 5.83691 9.02432 5.94213C9.13784 6.81017 9.26487 7.54143 9.40541 8.13591C9.55135 8.72512 9.74054 9.21175 9.97297 9.59579C10.2108 9.97983 10.5243 10.2876 10.9135 10.5191C11.3027 10.7505 11.7973 10.932 12.3973 11.0636C12.9973 11.1951 13.7378 11.3082 14.6189 11.4029C14.7324 11.4134 14.8243 11.4555 14.8946 11.5292C14.9649 11.6028 15 11.6896 15 11.7896C15 11.8948 14.9649 11.9842 14.8946 12.0579C14.8243 12.1315 14.7324 12.1736 14.6189 12.1841C13.7378 12.2788 12.9973 12.3919 12.3973 12.5235C11.7973 12.655 11.3027 12.8365 10.9135 13.068C10.5243 13.2942 10.2108 13.5993 9.97297 13.9833C9.74054 14.3674 9.55135 14.8566 9.40541 15.4511C9.26487 16.0456 9.13784 16.7742 9.02432 17.637C9.0027 17.7475 8.95676 17.8343 8.88649 17.8974C8.81622 17.9658 8.72703 18 8.61892 18ZM3.12162 9.27225C2.95946 9.27225 2.86757 9.18544 2.84595 9.01184C2.78108 8.48575 2.71081 8.07277 2.63514 7.77291C2.56486 7.47304 2.44865 7.24945 2.28649 7.10215C2.12973 6.94958 1.89189 6.83385 1.57297 6.75493C1.25946 6.67602 0.827027 6.59185 0.275676 6.50241C0.0918919 6.47611 0 6.38667 0 6.23411C0 6.0868 0.0810811 6 0.243243 5.9737C0.8 5.86848 1.23784 5.77641 1.55676 5.6975C1.87568 5.61333 2.11622 5.49759 2.27838 5.35029C2.44054 5.20298 2.55946 4.98466 2.63514 4.69531C2.71081 4.4007 2.78108 3.99036 2.84595 3.46427C2.86757 3.29066 2.95946 3.20386 3.12162 3.20386C3.28378 3.20386 3.37568 3.28803 3.3973 3.45638C3.46757 3.98772 3.53784 4.40596 3.60811 4.71109C3.68378 5.01622 3.8 5.2477 3.95676 5.40552C4.11892 5.55809 4.35946 5.6712 4.67838 5.74485C4.9973 5.8185 5.43784 5.89478 6 5.9737C6.07027 5.97896 6.12703 6.00526 6.17027 6.05261C6.21892 6.09996 6.24324 6.16046 6.24324 6.23411C6.24324 6.38141 6.16216 6.47085 6 6.50241C5.43784 6.60763 4.9973 6.70232 4.67838 6.7865C4.36487 6.86541 4.12703 6.98115 3.96486 7.13371C3.80811 7.28102 3.69189 7.50197 3.61622 7.79658C3.54054 8.09119 3.46757 8.50153 3.3973 9.02762C3.38649 9.09601 3.35676 9.15388 3.30811 9.20123C3.25946 9.24858 3.1973 9.27225 3.12162 9.27225ZM7.04595 3.84305C6.94324 3.84305 6.88378 3.79044 6.86757 3.68523C6.8027 3.36431 6.74595 3.11179 6.6973 2.92766C6.65405 2.74353 6.58378 2.60412 6.48649 2.50943C6.39459 2.40947 6.25135 2.33056 6.05676 2.27269C5.86216 2.21482 5.58919 2.15695 5.23784 2.09908C5.12973 2.07804 5.07568 2.01754 5.07568 1.91758C5.07568 1.82288 5.12973 1.76502 5.23784 1.74397C5.58919 1.68084 5.86216 1.62297 6.05676 1.57036C6.25135 1.51249 6.39459 1.43621 6.48649 1.34152C6.58378 1.24156 6.65405 1.09952 6.6973 0.915388C6.74595 0.731258 6.8027 0.478737 6.86757 0.157826C6.88378 0.0526085 6.94324 0 7.04595 0C7.14324 0 7.2027 0.0526085 7.22432 0.157826C7.28378 0.478737 7.33784 0.731258 7.38649 0.915388C7.43514 1.09952 7.50541 1.24156 7.5973 1.34152C7.69459 1.43621 7.84054 1.51249 8.03514 1.57036C8.22973 1.62297 8.5027 1.68084 8.85405 1.74397C8.96216 1.76502 9.01622 1.82288 9.01622 1.91758C9.01622 2.01754 8.96216 2.07804 8.85405 2.09908C8.5027 2.15695 8.22973 2.21482 8.03514 2.27269C7.84054 2.33056 7.69459 2.40947 7.5973 2.50943C7.50541 2.60412 7.43514 2.74353 7.38649 2.92766C7.33784 3.11179 7.28378 3.36431 7.22432 3.68523C7.2027 3.79044 7.14324 3.84305 7.04595 3.84305Z" fill="#9CADF1"/>
</svg>
