<svg width="80" height="30" viewBox="0 0 80 30" fill="none" xmlns="http://www.w3.org/2000/svg">
<path d="M4.89025 3.04798C5.09773 2.9416 5.36746 2.88841 5.69943 2.88841C6.44637 2.88841 7.0377 3.03734 7.47341 3.33521C7.72239 3.5267 7.92987 3.62244 8.09586 3.62244C8.1996 3.62244 8.34484 3.59053 8.53157 3.5267C8.71831 3.46287 8.91542 3.43096 9.1229 3.43096L9.74535 3.5267C9.93208 3.59053 10.2744 3.62244 10.7724 3.62244C11.0836 3.62244 11.3118 3.6118 11.4571 3.59053C11.6231 3.56925 11.8513 3.55861 12.1418 3.55861C13.1169 3.55861 13.8846 3.80329 14.4448 4.29265C15.088 4.84583 15.4096 5.55859 15.4096 6.43092C15.4096 7.32452 15.0777 8.02664 14.4137 8.53727C13.8328 9.00535 13.0547 9.23939 12.0795 9.23939C11.8098 9.23939 11.5608 9.20748 11.3326 9.14365C11.0836 9.07982 10.8969 9.0479 10.7724 9.0479C10.6271 9.0479 10.3678 9.13301 9.99433 9.30322C9.6831 9.47343 9.37188 9.55853 9.06065 9.55853C8.85317 9.55853 8.68718 9.5479 8.5627 9.52662C8.39671 9.50534 7.81576 9.46279 6.81984 9.39896L5.85505 9.36705L5.88617 11.0904C5.90692 11.7287 5.91729 12.3245 5.91729 12.8776L6.01066 12.8457C6.05215 12.8032 6.1144 12.75 6.19739 12.6862C6.28039 12.6223 6.36338 12.5479 6.44637 12.4628C6.81984 12.1436 7.25555 11.9096 7.75351 11.7606C8.02324 11.6755 8.27222 11.633 8.50045 11.633C8.70793 11.633 8.99841 11.6968 9.37188 11.8245C9.74535 11.9521 10.0151 12.0159 10.1811 12.0159C10.347 12.0159 10.5545 11.9521 10.8035 11.8245C11.1977 11.6543 11.6853 11.5691 12.2663 11.5691C12.8265 11.5691 13.2726 11.6543 13.6045 11.8245C14.061 12.0585 14.4241 12.4096 14.6938 12.8776C14.9843 13.3457 15.1295 13.8351 15.1295 14.3457C15.1295 14.4946 15.1088 14.6755 15.0673 14.8883C14.922 15.3776 14.7561 15.7499 14.5693 16.0053C14.3826 16.2606 14.0299 16.5584 13.5112 16.8989C13.0754 17.1967 12.7435 17.3882 12.5152 17.4733C12.287 17.5372 11.9447 17.5797 11.4882 17.601C10.8035 17.6223 10.2848 17.7499 9.93208 17.984C9.53786 18.218 9.05028 18.335 8.46933 18.335C8.07511 18.335 7.74314 18.2712 7.47341 18.1435C7.41117 18.101 7.3178 18.0797 7.19331 18.0797C7.00658 18.0797 6.72647 18.218 6.353 18.4946C5.81355 18.9201 5.54382 19.3776 5.54382 19.8669C5.54382 20.1648 5.59569 20.452 5.69943 20.7286C5.76168 20.8775 5.8343 21.186 5.91729 21.6541C5.91729 21.7818 5.93804 21.8669 5.97954 21.9094C6.02103 21.952 6.08328 21.952 6.16627 21.9094C6.24926 21.8669 6.33226 21.7924 6.41525 21.686C6.58124 21.4945 6.88209 21.3031 7.3178 21.1116C7.77426 20.8988 8.14773 20.7924 8.43821 20.7924C8.72868 20.7924 9.06065 20.8563 9.43412 20.9839C9.53786 21.0265 9.67273 21.0477 9.83871 21.0477C10.0877 21.0477 10.3574 20.9946 10.6479 20.8882C11.0006 20.7605 11.3533 20.6967 11.7061 20.6967C12.3908 20.6967 13.0028 20.8988 13.5423 21.3031C14.0817 21.7073 14.4345 22.2499 14.6004 22.9307C14.6627 23.1435 14.6938 23.3562 14.6938 23.569C14.6938 24.3562 14.3826 25.0583 13.7601 25.6753C13.1584 26.2711 12.4426 26.569 11.6127 26.569C11.1562 26.569 10.762 26.686 10.43 26.92C10.0358 27.2179 9.49637 27.3668 8.81167 27.3668C8.4797 27.3668 8.22035 27.3243 8.03361 27.2392C7.88838 27.1753 7.76389 27.1434 7.66015 27.1434C7.49416 27.1434 7.15181 27.2817 6.63311 27.5583C6.05215 27.8774 5.50233 28.037 4.98362 28.037C4.6309 28.037 4.2678 27.9519 3.89433 27.7817C3.50012 27.5902 3.1474 27.2923 2.83617 26.8881C2.5457 26.5051 2.36934 26.1328 2.30709 25.7711C2.2241 25.3243 1.96475 24.9094 1.52903 24.5264C0.636856 23.7818 0.190768 22.8137 0.190768 21.6222C0.190768 21.4307 0.201142 21.2924 0.221891 21.2073C0.284136 20.7392 0.315258 20.4201 0.315258 20.2499C0.315258 20.101 0.253013 19.6754 0.128524 18.9733C0.0662787 18.5478 0.0351562 18.2499 0.0351562 18.0797C0.0351562 17.8244 0.107775 17.5159 0.253013 17.1542C0.439748 16.7499 0.533115 16.3563 0.533115 15.9733C0.533115 15.9308 0.522741 15.867 0.501992 15.7819C0.501992 15.6968 0.501992 15.6223 0.501992 15.5585V15.2074C0.501992 14.7819 0.533115 14.4734 0.59536 14.2819C0.636856 14.1968 0.657604 14.0798 0.657604 13.9308C0.657604 13.7606 0.59536 13.5585 0.47087 13.3244C0.263387 12.9627 0.159646 12.5053 0.159646 11.9521C0.159646 11.4628 0.242639 11.0479 0.408625 10.7075C0.533115 10.4734 0.59536 10.2926 0.59536 10.1649C0.59536 10.0798 0.553863 9.90959 0.47087 9.65428C0.408625 9.44152 0.377503 9.22875 0.377503 9.01599C0.377503 8.59046 0.564237 7.95217 0.937706 7.10112C1.47716 5.90965 2.13073 5.2288 2.89842 5.05859C3.18889 4.99477 3.39638 4.81392 3.52087 4.51605C3.62461 4.28201 3.81134 4.01605 4.08107 3.71818C4.3508 3.42032 4.62052 3.19692 4.89025 3.04798Z" fill="#F8C905"/>
<path d="M21.3795 2.56927C21.6908 2.44161 22.0124 2.37778 22.3443 2.37778C23.4232 2.37778 24.2117 2.86713 24.7096 3.84584C24.9379 4.25009 25.052 4.70753 25.052 5.21817C25.052 5.68624 24.9482 6.19688 24.7408 6.75006C24.5748 7.21814 24.4918 7.52665 24.4918 7.67558C24.4918 7.84579 24.554 8.10111 24.6785 8.44153C24.803 8.78195 24.8652 9.14365 24.8652 9.52662C24.8652 10.1011 24.7408 10.5798 24.4918 10.9628C24.388 11.133 24.3362 11.2926 24.3362 11.4415C24.3362 11.5691 24.3673 11.75 24.4295 11.984C24.471 12.1117 24.4918 12.3245 24.4918 12.6223C24.4918 13.367 24.3569 13.9095 24.0872 14.25C23.9627 14.4202 23.9938 14.7074 24.1805 15.1117C24.3465 15.4946 24.4295 15.867 24.4295 16.2287C24.4295 16.2712 24.4192 16.3457 24.3984 16.4521C24.3984 16.5584 24.3984 16.6435 24.3984 16.7074C24.3777 16.8138 24.3673 16.9733 24.3673 17.1861C24.3673 17.6329 24.4192 18.0159 24.5229 18.335C24.6681 18.7393 24.7408 19.1329 24.7408 19.5159V20.0584L25.7678 20.1222C25.913 20.1435 26.0998 20.1541 26.328 20.1541C26.7015 20.1541 26.9919 20.1009 27.1994 19.9946C27.4692 19.8456 27.8426 19.7712 28.3198 19.7712C28.9008 19.7712 29.3676 19.8775 29.7203 20.0903C29.9901 20.2818 30.1975 20.3775 30.3428 20.3775C30.4258 20.3775 30.6851 20.3031 31.1208 20.1541C31.5566 20.0052 31.9093 19.9307 32.179 19.9307C32.76 19.9307 33.3305 20.218 33.8907 20.7924C34.5339 21.452 34.8555 22.2499 34.8555 23.186C34.8555 24.3988 34.3783 25.2711 33.4239 25.803C33.0919 25.9732 32.6251 26.0583 32.0234 26.0583C31.6499 26.0583 31.3076 26.0051 30.9964 25.8987C30.8304 25.8349 30.6851 25.803 30.5606 25.803C30.4362 25.803 30.2494 25.8562 30.0004 25.9626C29.6892 26.1115 29.3365 26.186 28.9423 26.186C28.6518 26.186 28.351 26.1328 28.0397 26.0264C27.9152 25.9626 27.8011 25.9307 27.6974 25.9307C27.5521 25.9307 27.2513 26.0477 26.7948 26.2817C26.2969 26.537 25.8819 26.6647 25.5499 26.6647C25.2595 26.6647 24.8652 26.537 24.3673 26.2817C23.9316 26.069 23.5477 25.9626 23.2158 25.9626C23.1743 25.9626 23.112 25.9732 23.029 25.9945C22.9668 25.9945 22.9045 25.9945 22.8423 25.9945H22.5622C21.5248 25.9945 20.6326 25.686 19.8857 25.069C19.2632 24.5371 18.952 23.8456 18.952 22.9945C18.952 22.6116 19.035 22.2179 19.201 21.8137C19.3047 21.5584 19.3566 21.3775 19.3566 21.2711C19.3566 21.1648 19.2736 20.9414 19.1076 20.6009C18.8794 20.1967 18.7653 19.6541 18.7653 18.9733C18.7653 18.6116 18.8171 18.2925 18.9209 18.0159C19.0246 17.8244 19.0039 17.5691 18.8586 17.2499C18.7134 16.9733 18.6408 16.5478 18.6408 15.9733C18.6408 15.484 18.6926 15.1436 18.7964 14.9521C18.8586 14.8244 18.8897 14.6436 18.8897 14.4095C18.8897 14.1755 18.8586 13.867 18.7964 13.484C18.7341 13.101 18.703 12.7925 18.703 12.5585C18.703 12.3245 18.7549 11.9947 18.8586 11.5691C18.9624 11.1862 19.0142 10.9415 19.0142 10.8351C19.0142 10.7075 18.9312 10.4947 18.7653 10.1968C18.537 9.83513 18.4229 9.39896 18.4229 8.88833C18.4229 8.27132 18.5889 7.72877 18.9209 7.26069C19.2528 6.75006 19.4188 6.20751 19.4188 5.63305C19.4188 5.01604 19.5226 4.52669 19.73 4.16499C20.1865 3.37776 20.7363 2.84586 21.3795 2.56927Z" fill="#DA5050"/>
<path d="M41.017 4.54796C41.3905 4.44158 41.7225 4.38839 42.013 4.38839C42.7806 4.38839 43.4342 4.66498 43.9737 5.21817C44.5131 5.75007 44.8243 6.48411 44.9073 7.42027V7.7075C44.9073 8.09047 44.8036 8.59046 44.5961 9.20748C44.4094 9.80321 44.3056 10.2819 44.2849 10.6436C44.2019 11.3245 44.0774 11.8351 43.9114 12.1755C43.7662 12.4521 43.6936 12.7074 43.6936 12.9415C43.6936 13.0266 43.7143 13.1542 43.7558 13.3244C43.8181 13.6223 43.8492 13.9521 43.8492 14.3138C43.8492 14.867 43.7869 15.2499 43.6624 15.4627C43.5587 15.6542 43.5898 15.9627 43.7558 16.3882C43.9011 16.7925 43.9737 17.1755 43.9737 17.5372C43.9737 17.5797 43.9633 17.6648 43.9425 17.7925C43.9425 17.8989 43.9425 17.984 43.9425 18.0478C43.9218 18.1967 43.9114 18.3776 43.9114 18.5903C43.9114 18.7605 43.9218 18.8882 43.9425 18.9733C43.984 19.0584 44.0255 19.1648 44.067 19.2924C44.1293 19.4201 44.1812 19.5584 44.2226 19.7073C44.3264 20.0478 44.5857 20.3031 45.0007 20.4733C45.3119 20.6009 45.5402 20.6648 45.6854 20.6648C45.7891 20.6648 45.9655 20.6009 46.2145 20.4733C46.5465 20.3244 46.9095 20.2499 47.3038 20.2499C47.3453 20.2499 47.4075 20.2605 47.4905 20.2818C47.5735 20.2818 47.6357 20.2818 47.6772 20.2818C47.7395 20.2818 47.8225 20.2924 47.9262 20.3137C48.03 20.3137 48.1026 20.3137 48.1441 20.3137C48.3516 20.3137 48.476 20.2924 48.5175 20.2499C48.559 20.1861 48.6005 20.069 48.642 19.8988C48.725 19.3456 48.8184 18.8669 48.9221 18.4627C49.0259 18.0797 49.0777 17.7499 49.0777 17.4733C49.0777 17.3031 49.057 17.1861 49.0155 17.1223C48.9118 16.9095 48.8599 16.6648 48.8599 16.3882C48.8599 15.5372 49.1607 14.6861 49.7624 13.8351C49.9907 13.4947 50.1048 13.133 50.1048 12.75C50.1048 12.3457 50.2293 11.9096 50.4783 11.4415C50.6857 11.016 50.7895 10.7075 50.7895 10.516C50.7895 10.4947 50.7895 10.4628 50.7895 10.4202L50.7584 10.3883C50.6754 10.1968 50.6339 9.88832 50.6339 9.46279C50.6339 8.8245 50.7272 8.30323 50.914 7.89898C51.4327 6.77134 52.273 6.20751 53.4349 6.20751C54.1196 6.20751 54.7213 6.44155 55.24 6.90963C55.9039 7.48409 56.2359 8.1543 56.2359 8.92025C56.2359 9.30322 56.1322 9.73938 55.9247 10.2287C55.8002 10.5479 55.7379 10.7926 55.7379 10.9628C55.7379 11.1543 55.7794 11.3777 55.8624 11.633C55.9869 12.0798 56.0492 12.4947 56.0492 12.8776C56.0492 13.367 55.9454 13.8138 55.7379 14.218C55.5305 14.6223 55.3748 15.2606 55.2711 16.1329C55.2089 17.0052 55.0636 17.5691 54.8354 17.8244C54.6694 18.0584 54.5864 18.2286 54.5864 18.335C54.5864 18.4201 54.6383 18.601 54.742 18.8776C54.8873 19.3244 54.9599 19.6329 54.9599 19.8031C54.9599 20.5478 54.6383 21.2286 53.9951 21.8456C53.5594 22.2499 53.3415 22.5796 53.3415 22.835C53.3415 23.2179 53.0303 23.7498 52.4078 24.4307C51.8061 25.1115 51.2771 25.5158 50.8206 25.6434C50.7376 25.6647 50.5612 25.6753 50.2915 25.6753C49.9803 25.6753 49.7624 25.6647 49.6379 25.6434C49.5342 25.6222 49.3993 25.6115 49.2334 25.6115C48.9429 25.6115 48.6628 25.7179 48.3931 25.9307C48.1233 26.1434 47.7499 26.2498 47.2726 26.2498H46.7436C46.3078 26.2285 45.6128 26.2179 44.6584 26.2179C43.3512 26.2179 42.2619 25.7604 41.3905 24.8456C40.8718 24.3137 40.5813 24.0477 40.5191 24.0477C40.4361 24.0477 40.0834 23.8243 39.4609 23.3775C38.7762 22.8881 38.3405 22.4307 38.1538 22.0052C37.967 21.5584 37.8737 21.2073 37.8737 20.952C37.8737 20.6541 37.9463 20.2924 38.0915 19.8669C38.1953 19.6116 38.2471 19.3776 38.2471 19.1648C38.2471 18.952 38.1953 18.7393 38.0915 18.5265C37.9878 18.3137 37.9359 18.0371 37.9359 17.6967C37.9359 17.2286 38.05 16.7606 38.2783 16.2925C38.3405 16.1648 38.3716 16.0372 38.3716 15.9095C38.3716 15.7393 38.299 15.4627 38.1538 15.0797C37.967 14.6117 37.8737 14.1436 37.8737 13.6755C37.8737 13.3138 37.9359 13.0053 38.0604 12.75C38.1849 12.4947 38.2471 11.984 38.2471 11.2181C38.2679 10.4309 38.4235 9.80321 38.714 9.33513C38.963 8.95216 39.0875 8.68621 39.0875 8.53727C39.0875 8.43089 39.0563 8.30323 38.9941 8.1543C38.8903 7.7926 38.8385 7.50537 38.8385 7.29261C38.8385 6.65432 39.0563 6.09049 39.492 5.60114C39.9278 5.09051 40.4361 4.73945 41.017 4.54796Z" fill="#14BAF1"/>
<path d="M74.647 2.28204C75.0827 2.06927 75.5288 1.96289 75.9853 1.96289C76.7737 1.96289 77.4273 2.29267 77.946 2.95224C78.4854 3.6118 78.7966 4.49477 78.8796 5.60114C78.9211 6.30326 79.0456 6.83517 79.2531 7.19686C79.5228 7.72877 79.6577 8.2394 79.6577 8.72876C79.6577 8.9628 79.6266 9.19684 79.5643 9.43088C79.4398 9.8564 79.4295 10.1224 79.5332 10.2287C79.5955 10.2713 79.7096 10.5692 79.8755 11.1223C79.9585 11.5053 80 11.7287 80 11.7925C80 12.0266 79.9378 12.3138 79.8133 12.6542C79.7096 12.9521 79.6577 13.2181 79.6577 13.4521C79.6577 13.6436 79.6784 13.7819 79.7199 13.867C79.8237 14.101 79.8755 14.5266 79.8755 15.1436C79.8755 15.7819 79.8237 16.2925 79.7199 16.6755C79.6369 17.0584 79.5955 17.2818 79.5955 17.3457C79.5955 17.5372 79.6577 17.7818 79.7822 18.0797C79.9274 18.4627 80 18.8563 80 19.2605C80 19.6435 79.9274 19.9839 79.7822 20.2818C79.6577 20.5158 79.5955 20.6967 79.5955 20.8243C79.5955 20.9095 79.6681 21.2286 79.8133 21.7818C79.9378 22.2286 80 22.5477 80 22.7392C80 22.9094 79.9689 23.1222 79.9067 23.3775C79.7199 24.0371 79.3153 24.6115 78.6929 25.1009C78.0912 25.5902 77.4791 25.8456 76.8567 25.8668C76.3172 25.8668 75.7881 25.686 75.2694 25.3243C74.7715 24.9626 74.4291 24.5158 74.2424 23.9839C74.1387 23.6647 74.0868 23.3137 74.0868 22.9307C74.0868 22.2924 74.1905 21.7605 74.398 21.335C74.5225 21.0158 74.5847 20.8031 74.5847 20.6967C74.5847 20.569 74.5329 20.4201 74.4291 20.2499C74.2839 19.9946 74.2113 19.6435 74.2113 19.1967V18.9733C74.2528 18.1223 74.2735 17.6648 74.2735 17.601C74.2735 17.2393 74.2216 16.8457 74.1179 16.4201C74.0764 16.3138 74.0557 16.0691 74.0557 15.6861C74.0557 14.984 74.1283 14.2925 74.2735 13.6117C74.315 13.4627 74.2528 13.3883 74.0868 13.3883C73.9208 13.3883 73.8067 13.6649 73.7444 14.218C73.7029 14.6223 73.5681 15.0797 73.3398 15.5904C73.1324 16.101 72.9456 16.4095 72.7796 16.5159C72.6759 16.5797 72.624 16.8138 72.624 17.218C72.624 18.0691 72.2817 18.8456 71.597 19.5478C70.933 20.2286 70.1965 20.569 69.3873 20.569C68.7441 20.569 68.1424 20.335 67.5822 19.8669C67.022 19.3988 66.69 18.8456 66.5863 18.2074C66.4825 17.8031 66.3269 17.5372 66.1195 17.4095C65.829 17.2606 65.5904 17.0904 65.4036 16.8989C65.2376 16.7287 65.1028 16.6435 64.999 16.6435C64.9576 16.6435 64.9368 16.6648 64.9368 16.7074C64.9368 16.7925 65.0198 16.984 65.1858 17.2818C65.414 17.6861 65.5281 18.1754 65.5281 18.7499C65.5281 19.1967 65.4451 19.5903 65.2791 19.9307C65.1754 20.1861 65.1235 20.3563 65.1235 20.4414C65.1235 20.5903 65.2065 20.835 65.3725 21.1754C65.5592 21.5797 65.6526 21.9945 65.6526 22.4201C65.6526 23.186 65.3621 23.8669 64.7812 24.4626C64.221 25.0371 63.5467 25.3243 62.7582 25.3243H62.4781C61.4615 25.2179 60.7249 24.7179 60.2684 23.8243C60.1025 23.4839 60.0195 22.9945 60.0195 22.3562C60.0195 21.9307 60.0713 21.5584 60.1751 21.2392C60.2996 20.9626 60.2684 20.6541 60.0817 20.3137C59.978 20.0797 59.8846 19.569 59.8016 18.7818C59.7186 17.9946 59.6149 17.4733 59.4904 17.218C59.3036 16.7925 59.2103 16.3138 59.2103 15.7819C59.231 13.2713 59.2518 11.8138 59.2725 11.4096C59.314 10.984 59.4489 10.5266 59.6771 10.0373C59.9053 9.56917 60.0195 9.21811 60.0195 8.98407C60.0195 8.92025 59.978 8.63302 59.895 8.12238C59.8535 7.9309 59.8327 7.64367 59.8327 7.26069C59.8327 5.64369 60.3929 4.52669 61.5133 3.90967C61.9283 3.69691 62.3433 3.59053 62.7582 3.59053C63.6919 3.59053 64.553 4.18627 65.3414 5.37774C65.7771 6.18624 66.0053 6.70751 66.0261 6.94155C66.0261 6.9841 66.0157 7.06921 65.995 7.19686C65.995 7.30324 65.995 7.38835 65.995 7.45218L65.9327 8.50536L66.4307 8.66493C66.7626 8.77131 67.1465 9.06918 67.5822 9.55853C68.0179 10.0479 68.298 10.4841 68.4225 10.867C68.547 11.25 68.6507 11.4415 68.7337 11.4415C68.8375 11.4415 68.9205 11.2074 68.9827 10.7394C69.045 10.3777 69.2213 9.92023 69.5118 9.36705C69.823 8.79259 70.0512 8.50536 70.1965 8.50536C70.3002 8.50536 70.3936 8.34578 70.4766 8.02664C70.7048 7.13304 71.1717 6.37773 71.8771 5.76071C72.3543 5.33519 72.6552 4.88838 72.7796 4.4203C73.0286 3.48415 73.6511 2.77139 74.647 2.28204Z" fill="#1BE15A"/>
</svg>
