<svg width="164" height="60" viewBox="0 0 164 60" fill="none" xmlns="http://www.w3.org/2000/svg">
<path d="M10.025 6.09609C10.4503 5.88332 11.0032 5.77694 11.6838 5.77694C13.215 5.77694 14.4272 6.07481 15.3204 6.67055C15.8309 7.05352 16.2562 7.24501 16.5965 7.24501C16.8091 7.24501 17.1069 7.18118 17.4897 7.05352C17.8725 6.92586 18.2766 6.86204 18.7019 6.86204L19.9779 7.05352C20.3607 7.18118 21.0625 7.24501 22.0833 7.24501C22.7214 7.24501 23.1892 7.22373 23.487 7.18118C23.8272 7.13862 24.2951 7.11735 24.8906 7.11735C26.8897 7.11735 28.4634 7.6067 29.6119 8.58541C30.9304 9.69178 31.5897 11.1173 31.5897 12.862C31.5897 14.6492 30.9091 16.0534 29.5481 17.0747C28.3571 18.0108 26.7621 18.4789 24.763 18.4789C24.21 18.4789 23.6996 18.4151 23.2318 18.2874C22.7214 18.1598 22.3385 18.0959 22.0833 18.0959C21.7856 18.0959 21.2539 18.2661 20.4883 18.6066C19.8503 18.947 19.2123 19.1172 18.5743 19.1172C18.149 19.1172 17.8087 19.0959 17.5535 19.0534C17.2132 19.0108 16.0223 18.9257 13.9806 18.798L12.0028 18.7342L12.0666 22.181C12.1091 23.4576 12.1304 24.649 12.1304 25.7554L12.3218 25.6916C12.4069 25.6065 12.5345 25.5001 12.7046 25.3724C12.8747 25.2448 13.0449 25.0958 13.215 24.9256C13.9806 24.2873 14.8738 23.8193 15.8947 23.5214C16.4476 23.3512 16.958 23.2661 17.4259 23.2661C17.8512 23.2661 18.4467 23.3937 19.2123 23.649C19.9779 23.9044 20.5309 24.032 20.8711 24.032C21.2114 24.032 21.6367 23.9044 22.1471 23.649C22.9553 23.3086 23.9548 23.1384 25.1458 23.1384C26.2942 23.1384 27.2087 23.3086 27.8892 23.649C28.825 24.1171 29.5693 24.8192 30.1223 25.7554C30.7177 26.6916 31.0155 27.6703 31.0155 28.6915C31.0155 28.9894 30.9729 29.3511 30.8879 29.7766C30.5901 30.7553 30.2499 31.5 29.8671 32.0106C29.4843 32.5213 28.7612 33.117 27.6978 33.7978C26.8046 34.3936 26.1241 34.7766 25.6562 34.9468C25.1883 35.0744 24.4865 35.1595 23.5508 35.2021C22.1471 35.2446 21.0838 35.5 20.3607 35.968C19.5526 36.4361 18.553 36.6702 17.3621 36.6702C16.5539 36.6702 15.8734 36.5425 15.3204 36.2872C15.1928 36.2021 15.0014 36.1595 14.7462 36.1595C14.3634 36.1595 13.7892 36.4361 13.0236 36.9893C11.9177 37.8404 11.3648 38.7552 11.3648 39.7339C11.3648 40.3297 11.4711 40.9041 11.6838 41.4573C11.8114 41.7552 11.9603 42.3722 12.1304 43.3084C12.1304 43.5637 12.1729 43.7339 12.258 43.819C12.3431 43.9041 12.4707 43.9041 12.6408 43.819C12.8109 43.7339 12.9811 43.585 13.1512 43.3722C13.4915 42.9892 14.1082 42.6062 15.0014 42.2233C15.9372 41.7977 16.7028 41.585 17.2983 41.585C17.8937 41.585 18.5743 41.7126 19.3399 41.968C19.5526 42.0531 19.829 42.0956 20.1693 42.0956C20.6797 42.0956 21.2327 41.9892 21.8281 41.7765C22.5512 41.5212 23.2743 41.3935 23.9974 41.3935C25.401 41.3935 26.6557 41.7977 27.7616 42.6062C28.8675 43.4147 29.5906 44.4998 29.9309 45.8615C30.0585 46.287 30.1223 46.7126 30.1223 47.1381C30.1223 48.7125 29.4843 50.1168 28.2082 51.3508C26.9747 52.5423 25.5073 53.138 23.806 53.138C22.8702 53.138 22.0621 53.3721 21.3815 53.8401C20.5734 54.4359 19.4675 54.7337 18.0639 54.7337C17.3833 54.7337 16.8517 54.6486 16.4689 54.4784C16.1711 54.3508 15.9159 54.2869 15.7032 54.2869C15.363 54.2869 14.6612 54.5635 13.5978 55.1167C12.4069 55.755 11.2797 56.0742 10.2164 56.0742C9.49329 56.0742 8.74895 55.9039 7.98334 55.5635C7.17519 55.1805 6.45212 54.5848 5.81411 53.7763C5.21863 53.0104 4.85709 52.2657 4.72949 51.5423C4.55935 50.6487 4.02768 49.8189 3.13447 49.053C1.30551 47.5636 0.391026 45.6275 0.391026 43.2445C0.391026 42.8616 0.412293 42.585 0.454827 42.4148C0.582429 41.4786 0.64623 40.8403 0.64623 40.4999C0.64623 40.202 0.518628 39.351 0.263424 37.9467C0.135822 37.0957 0.0720215 36.4999 0.0720215 36.1595C0.0720215 35.6489 0.22089 35.0319 0.518628 34.3085C0.901434 33.5 1.09284 32.7128 1.09284 31.9468C1.09284 31.8617 1.07157 31.734 1.02904 31.5638C1.02904 31.3936 1.02904 31.2447 1.02904 31.117V30.4149C1.02904 29.5639 1.09284 28.9468 1.22044 28.5639C1.30551 28.3937 1.34804 28.1596 1.34804 27.8618C1.34804 27.5213 1.22044 27.1171 0.965235 26.649C0.539895 25.9256 0.327225 25.0107 0.327225 23.9044C0.327225 22.9257 0.497361 22.0959 0.837633 21.415C1.09284 20.947 1.22044 20.5853 1.22044 20.3299C1.22044 20.1597 1.13537 19.8193 0.965235 19.3087C0.837633 18.8832 0.773832 18.4576 0.773832 18.0321C0.773832 17.181 1.15664 15.9045 1.92225 14.2024C3.02813 11.8194 4.36795 10.4577 5.94171 10.1173C6.53718 9.98965 6.96252 9.62795 7.21773 9.03222C7.4304 8.56414 7.8132 8.03223 8.36614 7.43649C8.91908 6.84076 9.47203 6.39395 10.025 6.09609Z" fill="#F8C905"/>
<path d="M43.828 5.13865C44.466 4.88334 45.1253 4.75568 45.8058 4.75568C48.0176 4.75568 49.6339 5.73439 50.6547 7.69181C51.1226 8.50031 51.3565 9.41519 51.3565 10.4365C51.3565 11.3726 51.1438 12.3939 50.7185 13.5002C50.3782 14.4364 50.2081 15.0534 50.2081 15.3513C50.2081 15.6917 50.3357 16.2023 50.5909 16.8832C50.8461 17.564 50.9737 18.2874 50.9737 19.0534C50.9737 20.2023 50.7185 21.1597 50.2081 21.9257C49.9954 22.2661 49.8891 22.5852 49.8891 22.8831C49.8891 23.1384 49.9529 23.5001 50.0805 23.9682C50.1656 24.2235 50.2081 24.649 50.2081 25.2448C50.2081 26.7341 49.9316 27.8192 49.3787 28.5C49.1235 28.8405 49.1873 29.4149 49.5701 30.2234C49.9103 30.9894 50.0805 31.734 50.0805 32.4574C50.0805 32.5425 50.0592 32.6915 50.0167 32.9042C50.0167 33.117 50.0167 33.2872 50.0167 33.4149C49.9742 33.6276 49.9529 33.9468 49.9529 34.3723C49.9529 35.2659 50.0592 36.0319 50.2719 36.6702C50.5696 37.4787 50.7185 38.2659 50.7185 39.0318V40.1169L52.8239 40.2446C53.1217 40.2871 53.5045 40.3084 53.9723 40.3084C54.738 40.3084 55.3334 40.202 55.7588 39.9893C56.3117 39.6914 57.0773 39.5425 58.0556 39.5425C59.2466 39.5425 60.2036 39.7552 60.9266 40.1807C61.4796 40.5637 61.9049 40.7552 62.2027 40.7552C62.3728 40.7552 62.9045 40.6063 63.7977 40.3084C64.6909 40.0105 65.414 39.8616 65.9669 39.8616C67.1579 39.8616 68.3275 40.4361 69.476 41.585C70.7945 42.9041 71.4538 44.4998 71.4538 46.3722C71.4538 48.7977 70.4755 50.5423 68.519 51.6061C67.8384 51.9465 66.8814 52.1168 65.6479 52.1168C64.8823 52.1168 64.1805 52.0104 63.5425 51.7976C63.2022 51.67 62.9045 51.6061 62.6493 51.6061C62.3941 51.6061 62.0113 51.7125 61.5009 51.9253C60.8628 52.2231 60.1398 52.3721 59.3316 52.3721C58.7361 52.3721 58.1194 52.2657 57.4814 52.0529C57.2262 51.9253 56.9923 51.8614 56.7796 51.8614C56.4818 51.8614 55.8651 52.0955 54.9294 52.5636C53.9085 53.0742 53.0579 53.3295 52.3773 53.3295C51.7818 53.3295 50.9737 53.0742 49.9529 52.5636C49.0597 52.138 48.2728 51.9253 47.5922 51.9253C47.5072 51.9253 47.3796 51.9465 47.2094 51.9891C47.0818 51.9891 46.9542 51.9891 46.8266 51.9891H46.2524C44.1257 51.9891 42.2968 51.3721 40.7655 50.1381C39.4895 49.0742 38.8515 47.6913 38.8515 45.9892C38.8515 45.2232 39.0217 44.436 39.3619 43.6275C39.5746 43.1169 39.6809 42.7552 39.6809 42.5424C39.6809 42.3297 39.5108 41.8829 39.1705 41.202C38.7027 40.3935 38.4687 39.3084 38.4687 37.9467C38.4687 37.2233 38.5751 36.585 38.7877 36.0319C39.0004 35.6489 38.9579 35.1383 38.6601 34.5C38.3624 33.9468 38.2135 33.0957 38.2135 31.9468C38.2135 30.9681 38.3198 30.2873 38.5325 29.9043C38.6601 29.649 38.7239 29.2873 38.7239 28.8192C38.7239 28.3511 38.6601 27.7341 38.5325 26.9682C38.4049 26.2022 38.3411 25.5852 38.3411 25.1171C38.3411 24.649 38.4474 23.9895 38.6601 23.1384C38.8728 22.3725 38.9791 21.8831 38.9791 21.6703C38.9791 21.415 38.809 20.9895 38.4687 20.3938C38.0008 19.6704 37.7669 18.798 37.7669 17.7768C37.7669 16.5428 38.1072 15.4577 38.7877 14.5215C39.4683 13.5002 39.8085 12.4152 39.8085 11.2662C39.8085 10.0322 40.0212 9.05349 40.4465 8.3301C41.3823 6.75565 42.5094 5.69184 43.828 5.13865Z" fill="#DA5050"/>
<path d="M84.0849 9.09605C84.8505 8.88328 85.531 8.7769 86.1265 8.7769C87.7003 8.7769 89.0401 9.33009 90.146 10.4365C91.2519 11.5003 91.8899 12.9683 92.06 14.8407V15.4151C92.06 16.1811 91.8473 17.181 91.422 18.4151C91.0392 19.6065 90.8265 20.564 90.784 21.2874C90.6138 22.6491 90.3586 23.6703 90.0184 24.3512C89.7206 24.9043 89.5718 25.415 89.5718 25.8831C89.5718 26.0533 89.6143 26.3086 89.6994 26.649C89.827 27.2447 89.8908 27.9043 89.8908 28.6277C89.8908 29.7341 89.7632 30.5 89.508 30.9255C89.2953 31.3085 89.3591 31.9255 89.6994 32.7766C89.9971 33.5851 90.146 34.351 90.146 35.0744C90.146 35.1595 90.1247 35.3297 90.0822 35.5851C90.0822 35.7978 90.0822 35.968 90.0822 36.0957C90.0396 36.3936 90.0184 36.7553 90.0184 37.1808C90.0184 37.5212 90.0396 37.7765 90.0822 37.9467C90.1672 38.1169 90.2523 38.3297 90.3374 38.585C90.465 38.8403 90.5713 39.1169 90.6564 39.4148C90.869 40.0956 91.4007 40.6063 92.2514 40.9467C92.8894 41.202 93.3573 41.3297 93.655 41.3297C93.8677 41.3297 94.2292 41.202 94.7396 40.9467C95.4202 40.6488 96.1645 40.4999 96.9727 40.4999C97.0577 40.4999 97.1853 40.5212 97.3555 40.5637C97.5256 40.5637 97.6532 40.5637 97.7383 40.5637C97.8659 40.5637 98.036 40.585 98.2487 40.6275C98.4614 40.6275 98.6102 40.6275 98.6953 40.6275C99.1206 40.6275 99.3758 40.585 99.4609 40.4999C99.546 40.3722 99.631 40.1382 99.7161 39.7978C99.8862 38.6914 100.078 37.734 100.29 36.9255C100.503 36.1595 100.609 35.5 100.609 34.9468C100.609 34.6063 100.567 34.3723 100.482 34.2447C100.269 33.8191 100.163 33.3298 100.163 32.7766C100.163 31.0745 100.779 29.3724 102.013 27.6703C102.481 26.9894 102.715 26.266 102.715 25.5001C102.715 24.6916 102.97 23.8193 103.48 22.8831C103.906 22.032 104.118 21.415 104.118 21.0321C104.118 20.9895 104.118 20.9257 104.118 20.8406L104.055 20.7767C103.884 20.3938 103.799 19.7768 103.799 18.9257C103.799 17.6491 103.991 16.6066 104.374 15.7981C105.437 13.5428 107.16 12.4152 109.541 12.4152C110.945 12.4152 112.179 12.8832 113.242 13.8194C114.603 14.9683 115.284 16.3087 115.284 17.8406C115.284 18.6066 115.071 19.4789 114.646 20.4576C114.39 21.0959 114.263 21.5852 114.263 21.9257C114.263 22.3086 114.348 22.7554 114.518 23.2661C114.773 24.1597 114.901 24.9895 114.901 25.7554C114.901 26.7341 114.688 27.6277 114.263 28.4362C113.837 29.2447 113.518 30.5213 113.306 32.266C113.178 34.0106 112.88 35.1383 112.412 35.6489C112.072 36.117 111.902 36.4574 111.902 36.6702C111.902 36.8404 112.008 37.2021 112.221 37.7552C112.519 38.6488 112.668 39.2659 112.668 39.6063C112.668 41.0956 112.008 42.4573 110.69 43.6913C109.797 44.4998 109.35 45.1594 109.35 45.67C109.35 46.436 108.712 47.4998 107.436 48.8615C106.203 50.2232 105.118 51.0317 104.182 51.287C104.012 51.3295 103.65 51.3508 103.098 51.3508C102.46 51.3508 102.013 51.3295 101.758 51.287C101.545 51.2444 101.269 51.2232 100.928 51.2232C100.333 51.2232 99.7586 51.4359 99.2057 51.8614C98.6528 52.287 97.8871 52.4997 96.9089 52.4997H95.8243C94.931 52.4572 93.5061 52.4359 91.5496 52.4359C88.8699 52.4359 86.6369 51.521 84.8505 49.6913C83.7871 48.6274 83.1917 48.0955 83.0641 48.0955C82.8939 48.0955 82.1709 47.6487 80.8948 46.7551C79.4912 45.7764 78.598 44.8615 78.2152 44.0105C77.8324 43.1169 77.641 42.4148 77.641 41.9041C77.641 41.3084 77.7899 40.585 78.0876 39.7339C78.3003 39.2233 78.4066 38.7552 78.4066 38.3297C78.4066 37.9042 78.3003 37.4787 78.0876 37.0531C77.8749 36.6276 77.7686 36.0744 77.7686 35.3936C77.7686 34.4574 78.0025 33.5213 78.4704 32.5851C78.598 32.3298 78.6618 32.0745 78.6618 31.8192C78.6618 31.4787 78.5129 30.9255 78.2152 30.1596C77.8324 29.2234 77.641 28.2873 77.641 27.3511C77.641 26.6277 77.7686 26.0107 78.0238 25.5001C78.279 24.9895 78.4066 23.9682 78.4066 22.4363C78.4491 20.8618 78.7681 19.6065 79.3636 18.6704C79.874 17.9044 80.1292 17.3725 80.1292 17.0747C80.1292 16.8619 80.0654 16.6066 79.9378 16.3087C79.7252 15.5853 79.6188 15.0109 79.6188 14.5853C79.6188 13.3088 80.0654 12.1811 80.9586 11.2024C81.8519 10.1811 82.8939 9.47902 84.0849 9.09605Z" fill="#14BAF1"/>
<path d="M153.026 4.56419C153.919 4.13867 154.834 3.9259 155.77 3.9259C157.386 3.9259 158.726 4.58547 159.789 5.9046C160.895 7.22373 161.533 8.98966 161.703 11.2024C161.788 12.6066 162.043 13.6705 162.469 14.3938C163.022 15.4577 163.298 16.4789 163.298 17.4576C163.298 17.9257 163.234 18.3938 163.107 18.8619C162.852 19.7129 162.83 20.2448 163.043 20.4576C163.171 20.5427 163.405 21.1384 163.745 22.2448C163.915 23.0108 164 23.4576 164 23.5852C164 24.0533 163.872 24.6278 163.617 25.3086C163.405 25.9043 163.298 26.4362 163.298 26.9043C163.298 27.2873 163.341 27.5639 163.426 27.7341C163.638 28.2022 163.745 29.0532 163.745 30.2873C163.745 31.5638 163.638 32.5851 163.426 33.351C163.256 34.117 163.171 34.5638 163.171 34.6915C163.171 35.0744 163.298 35.5638 163.553 36.1595C163.851 36.9255 164 37.7127 164 38.5212C164 39.2871 163.851 39.968 163.553 40.5637C163.298 41.0318 163.171 41.3935 163.171 41.6488C163.171 41.819 163.319 42.4573 163.617 43.5637C163.872 44.4573 164 45.0956 164 45.4785C164 45.819 163.936 46.2445 163.809 46.7551C163.426 48.0743 162.596 49.2232 161.32 50.2019C160.087 51.1806 158.832 51.6912 157.556 51.7338C156.45 51.7338 155.366 51.3721 154.302 50.6487C153.281 49.9253 152.58 49.0317 152.197 47.9679C151.984 47.3296 151.878 46.6275 151.878 45.8615C151.878 44.5849 152.091 43.5211 152.516 42.6701C152.771 42.0318 152.899 41.6063 152.899 41.3935C152.899 41.1382 152.792 40.8403 152.58 40.4999C152.282 39.9893 152.133 39.2871 152.133 38.3935V37.9467C152.218 36.2446 152.261 35.3297 152.261 35.2021C152.261 34.4787 152.154 33.6915 151.942 32.8404C151.857 32.6277 151.814 32.1383 151.814 31.3724C151.814 29.9681 151.963 28.5852 152.261 27.2235C152.346 26.9256 152.218 26.7767 151.878 26.7767C151.538 26.7767 151.304 27.3298 151.176 28.4362C151.091 29.2447 150.814 30.1596 150.347 31.1809C149.921 32.2021 149.538 32.8191 149.198 33.0319C148.986 33.1596 148.879 33.6276 148.879 34.4361C148.879 36.1382 148.177 37.6914 146.774 39.0957C145.413 40.4573 143.903 41.1382 142.244 41.1382C140.925 41.1382 139.692 40.6701 138.543 39.7339C137.395 38.7978 136.714 37.6914 136.502 36.4148C136.289 35.6063 135.97 35.0744 135.545 34.8191C134.949 34.5212 134.46 34.1808 134.077 33.7978C133.737 33.4574 133.461 33.2872 133.248 33.2872C133.163 33.2872 133.12 33.3298 133.12 33.4149C133.12 33.5851 133.291 33.9681 133.631 34.5638C134.099 35.3723 134.333 36.351 134.333 37.4999C134.333 38.3935 134.162 39.1808 133.822 39.8616C133.61 40.3722 133.503 40.7127 133.503 40.8829C133.503 41.1807 133.673 41.6701 134.014 42.3509C134.396 43.1594 134.588 43.9892 134.588 44.8403C134.588 46.3722 133.992 47.7338 132.801 48.9253C131.653 50.0742 130.271 50.6487 128.654 50.6487H128.08C125.996 50.4359 124.486 49.4359 123.55 47.6487C123.21 46.9679 123.04 45.9892 123.04 44.7126C123.04 43.8615 123.146 43.1169 123.359 42.4786C123.614 41.9254 123.55 41.3084 123.167 40.6275C122.955 40.1595 122.763 39.1382 122.593 37.5638C122.423 35.9893 122.21 34.9468 121.955 34.4361C121.572 33.5851 121.381 32.6277 121.381 31.5638C121.424 26.5426 121.466 23.6278 121.509 22.8193C121.594 21.9682 121.87 21.0533 122.338 20.0746C122.806 19.1385 123.04 18.4363 123.04 17.9683C123.04 17.8406 122.955 17.2662 122.785 16.2449C122.7 15.8619 122.657 15.2875 122.657 14.5215C122.657 11.2875 123.805 9.05349 126.102 7.81947C126.953 7.39394 127.804 7.18118 128.654 7.18118C130.568 7.18118 132.333 8.37265 133.95 10.7556C134.843 12.3726 135.311 13.4151 135.353 13.8832C135.353 13.9683 135.332 14.1385 135.29 14.3938C135.29 14.6066 135.29 14.7768 135.29 14.9045L135.162 17.0108L136.183 17.33C136.863 17.5427 137.65 18.1385 138.543 19.1172C139.437 20.0959 140.011 20.9682 140.266 21.7342C140.521 22.5001 140.734 22.8831 140.904 22.8831C141.117 22.8831 141.287 22.415 141.415 21.4789C141.542 20.7555 141.904 19.8406 142.499 18.7342C143.137 17.5853 143.605 17.0108 143.903 17.0108C144.115 17.0108 144.307 16.6917 144.477 16.0534C144.945 14.2662 145.902 12.7556 147.348 11.5215C148.326 10.6705 148.943 9.77689 149.198 8.84073C149.709 6.96842 150.985 5.5429 153.026 4.56419Z" fill="#1BE15A"/>
</svg>
