<svg width="113" height="99" viewBox="0 0 113 99" fill="none" xmlns="http://www.w3.org/2000/svg">
<path d="M98.4595 78.0975C97.0234 83.0453 91.843 85.9022 86.8922 84.4699L66.0479 78.4456C65.6503 78.3292 65.4228 77.9135 65.5349 77.5209L70.3139 61.0266C70.4306 60.6292 70.8468 60.4016 71.2396 60.5134C72.9881 60.8355 88.1449 63.7102 94.3533 67.6713C96.3704 68.9596 97.242 70.2321 97.6631 70.9934C99.2021 73.7488 98.7552 76.7225 98.4547 78.0928L98.4595 78.0975Z" fill="url(#paint0_radial_262_4675)"/>
<path d="M0.478632 30.748C2.21539 35.5986 7.56129 38.1329 12.4149 36.4002L32.8507 29.1111C33.2404 28.9706 33.442 28.5417 33.3061 28.1567L27.5246 11.986C27.3837 11.5965 26.9544 11.3948 26.5692 11.5304C24.8437 11.959 9.89164 15.7562 3.93787 20.09C2.00352 21.4993 1.21157 22.8228 0.837902 23.6085C-0.529179 26.4529 0.0991411 29.3937 0.483116 30.743L0.478632 30.748Z" fill="url(#paint1_radial_262_4675)"/>
<path d="M95.4611 1.02418C98.8098 2.59411 100.336 5.48728 100.602 5.99605L100.601 5.99609C101.271 7.27208 101.593 8.50447 101.708 9.61536C101.918 11.6222 101.419 13.2457 101.119 14.0445L99.247 13.3405C99.4917 12.6905 99.885 11.3978 99.7199 9.82092L99.7198 9.82001C99.6287 8.94168 99.3741 7.95661 98.8314 6.92215C98.6102 6.49995 97.3411 4.11102 94.6132 2.83203C91.6683 1.45292 88.7536 2.12651 87.769 2.44201C85.0517 3.31117 83.5891 4.49159 80.7896 6.92049C78.5866 8.83469 76.9959 10.6379 75.9778 11.8895L74.4256 10.6285C75.4952 9.31356 77.1659 7.42102 79.4778 5.4122C82.2907 2.97172 84.0191 1.5436 87.1584 0.539489C88.3404 0.160872 91.8468 -0.668354 95.4611 1.02418Z" fill="#BFE75C"/>
<path d="M76.8143 11.3404C56.5661 -7.09422 35.2343 0.0995662 22.0908 14.5141L11.5051 26.1235C0.0444435 38.6925 -3.97122 53.6895 14.1433 70.1815L23.9939 79.1498C19.1095 117.824 56.6794 90.2546 68.1401 77.6856L78.7257 66.0762C91.8647 51.6666 97.0576 29.7705 76.8094 11.3359L76.8143 11.3404Z" fill="url(#paint2_radial_262_4675)"/>
<g filter="url(#filter0_d_262_4675)">
<path d="M96.5778 19.219C98.0039 20.5173 100.213 20.4153 101.511 18.9911C102.81 17.5669 102.707 15.3598 101.281 14.0614C99.8545 12.7631 97.6456 12.8651 96.347 14.2893C95.0484 15.7135 95.1517 17.9206 96.5778 19.219Z" fill="#9AFFE9"/>
</g>
<path d="M43.2868 31.5142C44.5523 32.6664 46.5124 32.5758 47.6648 31.312C48.8172 30.0481 48.7255 28.0896 47.46 26.9374C46.1945 25.7852 44.2344 25.8758 43.082 27.1396C41.9296 28.4035 42.0212 30.3621 43.2868 31.5142Z" fill="#443E39"/>
<path d="M59.8241 46.5704C61.0896 47.7226 63.0497 47.632 64.2021 46.3682C65.3545 45.1043 65.2628 43.1457 63.9973 41.9936C62.7318 40.8414 60.7717 40.932 59.6193 42.1958C58.4669 43.4597 58.5586 45.4182 59.8241 46.5704Z" fill="#443E39"/>
<path d="M51.1782 42.6801L53.4951 42.7899C54.7194 42.8418 55.3425 41.3375 54.4358 40.512C53.8966 39.778 53.1625 38.9115 52.1832 38.0469C51.3464 37.3031 50.5273 36.7375 49.8234 36.3128C49.4144 35.9404 48.8164 35.8643 48.3284 36.1225C47.8772 36.3602 47.5558 36.8512 47.6409 37.4601L47.9653 39.755C48.1922 41.3755 49.5424 42.6048 51.1782 42.6801Z" fill="#FF9827"/>
<defs>
<filter id="filter0_d_262_4675" x="85.4336" y="3.1473" width="26.9911" height="26.9858" filterUnits="userSpaceOnUse" color-interpolation-filters="sRGB">
<feFlood flood-opacity="0" result="BackgroundImageFix"/>
<feColorMatrix in="SourceAlpha" type="matrix" values="0 0 0 0 0 0 0 0 0 0 0 0 0 0 0 0 0 0 127 0" result="hardAlpha"/>
<feOffset/>
<feGaussianBlur stdDeviation="5"/>
<feComposite in2="hardAlpha" operator="out"/>
<feColorMatrix type="matrix" values="0 0 0 0 0 0 0 0 0 1 0 0 0 0 0.816667 0 0 0 1 0"/>
<feBlend mode="normal" in2="BackgroundImageFix" result="effect1_dropShadow_262_4675"/>
<feBlend mode="normal" in="SourceGraphic" in2="effect1_dropShadow_262_4675" result="shape"/>
</filter>
<radialGradient id="paint0_radial_262_4675" cx="0" cy="0" r="1" gradientTransform="matrix(41.5936 4.65713 -1.87848 32.1758 66.0232 71.2414)" gradientUnits="userSpaceOnUse">
<stop offset="0.543178" stop-color="#FFD629"/>
<stop offset="0.978037" stop-color="#9AFFE9"/>
</radialGradient>
<radialGradient id="paint1_radial_262_4675" cx="0" cy="0" r="1" gradientTransform="matrix(-16.7753 38.3089 -30.204 -11.3245 19.6412 10.2723)" gradientUnits="userSpaceOnUse">
<stop offset="0.447704" stop-color="#FFD629"/>
<stop offset="0.978037" stop-color="#9AFFE9"/>
</radialGradient>
<radialGradient id="paint2_radial_262_4675" cx="0" cy="0" r="1" gradientTransform="matrix(-34.8341 114.875 -92.2996 -27.9888 56.8901 -6.79921)" gradientUnits="userSpaceOnUse">
<stop stop-color="#FFF2BB"/>
<stop offset="0.542996" stop-color="#FFD629"/>
<stop offset="0.978037" stop-color="#9AFFE9"/>
</radialGradient>
</defs>
</svg>
