<svg width="123" height="98" viewBox="0 0 122.65 97.56" fill="none" xmlns="http://www.w3.org/2000/svg"><g transform="translate(23.38 4.38)">
<path d="M37.5031 0C10.6891 0 0 19.2834 0 38.3971V53.7912C0 70.4578 6.98901 83.9725 30.9774 83.9725H44.0223C68.0107 83.9725 74.9997 70.4578 74.9997 53.7912V38.3971C74.9997 19.2899 64.3106 0 37.4966 0H37.5031Z" fill="#EFEEE8"/>
</g><g transform="translate(37.24 82.13)">
<path d="M9.49229 14.8796L5.03752 13.9659C1.91688 13.3258 -0.125803 11.3256 0.00634679 6.8249L0.175759 0L17.7035 3.59516L16.3093 10.3924C15.6696 13.5114 12.6206 15.5213 9.49996 14.8812L9.49229 14.8796Z" fill="#EFEEE8"/>
</g><g transform="translate(72.08 82.13)">
<path d="M8.21099 14.8796L12.6658 13.9659C15.7864 13.3258 17.8291 11.3256 17.6969 6.8249L17.5275 0L-0.000211704 3.59516L1.394 10.3924C2.03373 13.5114 5.08268 15.5213 8.20332 14.8812L8.21099 14.8796Z" fill="#EFEEE8"/>
</g><g transform="translate(2.81 6.11)">
<path d="M2.55776 3.71527C6.38186 -0.741955 13.1018 -1.26361 17.5594 2.55729L36.3301 18.6381C36.6874 18.9465 36.7272 19.4852 36.4257 19.8397L23.6862 34.7023C23.3776 35.0596 22.8386 35.0996 22.4841 34.7983C20.823 33.6395 6.46337 23.509 1.89524 16.4709C0.411587 14.1829 0.108336 12.4513 0.0309278 11.4628C-0.264469 7.87777 1.60224 5.00259 2.56053 3.72233L2.55776 3.71527Z" fill="#EFEEE8"/>
</g><g transform="translate(82.84 6.11)">
<path d="M34.0694 3.71527C30.2453 -0.741955 23.5254 -1.26361 19.0678 2.55729L0.29709 18.6381C-0.0602316 18.9465 -0.100024 19.4852 0.201489 19.8397L12.941 34.7023C13.2496 35.0596 13.7885 35.0996 14.1431 34.7983C15.8042 33.6395 30.1638 23.509 34.7319 16.4709C36.2156 14.1829 36.5189 12.4513 36.5963 11.4628C36.8917 7.87777 35.0249 5.00259 34.0667 3.72233L34.0694 3.71527Z" fill="#EFEEE8"/>
</g><g transform="translate(67.94 34.56)">
<path d="M3 6C4.65686 6 6 4.65685 6 3C6 1.34315 4.65686 0 3 0C1.34315 0 0 1.34315 0 3C0 4.65685 1.34315 6 3 6Z" fill="#443E39"/>
</g><g transform="translate(70.70 -0.29)">
<path d="M0 5.79031C1.9612 4.12126 5.81779 1.20695 10.3983 0.248554C12.5109 -0.194786 13.8206 -0.0187539 14.8538 0.56802C15.3408 0.841848 16.1569 1.43514 17.1177 3.39758C17.5982 4.37553 18.9473 7.40068 19 16.5022C19 16.9651 19 17.3367 19 17.5649C12.6688 13.64 6.33771 9.7217 0.0065776 5.79683L0 5.79031Z" fill="#EFEEE8"/>
</g><g transform="translate(72.33 2.73)">
<path d="M0 3.6236C1.20791 2.8149 4.65908 0.599174 7.83814 0.086336C8.70757 -0.0517357 9.53718 -0.0648854 10.2938 0.355904C11.1566 0.842443 11.5813 1.71032 11.8866 2.61108C12.9884 5.86562 12.8954 10.5798 12.849 11.9999L0 3.63018V3.6236Z" fill="#FFC9BB"/>
</g><g transform="translate(31.84 -0.29)">
<path d="M19 5.79031C17.0388 4.12126 13.1822 1.20695 8.60165 0.248554C6.48908 -0.194786 5.17942 -0.0187539 4.14617 0.56802C3.65916 0.841848 2.84309 1.43514 1.88223 3.39758C1.4018 4.37553 0.0526497 7.40068 0 16.5022C0 16.9651 0 17.3367 0 17.5649C6.33113 13.64 12.6623 9.7217 18.9934 5.79683L19 5.79031Z" fill="#EFEEE8"/>
</g><g transform="translate(36.21 2.73)">
<path d="M12.8733 3.6236C11.6654 2.8149 8.21424 0.599174 5.03518 0.086336C4.16575 -0.0517357 3.33614 -0.0648854 2.57954 0.355904C1.71674 0.842443 1.29199 1.71032 0.98669 2.61108C-0.11503 5.86562 -0.0221148 10.5798 0.0243432 11.9999L12.8733 3.63018V3.6236Z" fill="#FFC9BB"/>
</g><g transform="translate(46.31 34.61)">
<path d="M3.50017 6.93492C5.43327 6.93492 7.00035 5.38249 7.00035 3.46746C7.00035 1.55244 5.43327 0 3.50017 0C1.56708 0 0 1.55244 0 3.46746C0 5.38249 1.56708 6.93492 3.50017 6.93492Z" fill="#443E39"/>
</g><g transform="translate(57.76 39.55)">
<path d="M4.47575 2.75985L5.68031 1.76317C6.31682 1.23432 5.94039 0.210527 5.11225 0.210527C4.50997 0.0884844 3.74343 -0.00643831 2.86055 0.000341818C2.10085 0.00712195 1.43698 0.102045 0.88945 0.210527C0.519869 0.210527 0.184507 0.441052 0.0544694 0.793618C-0.0618801 1.11906 -0.000283722 1.50553 0.321389 1.76996L1.52595 2.76664C2.38146 3.47177 3.6134 3.47177 4.46891 2.76664L4.47575 2.75985Z" fill="#FFC9BB"/>
</g><g transform="translate(56.37 42.10)">
<path d="M4.47999 0.519691V2.32011L0.519691 4.07349" stroke="#FFC9BB" stroke-width="1.03938" stroke-miterlimit="10" stroke-linecap="round"/>
</g><g transform="translate(60.18 42.10)">
<path d="M0.519691 0.519691V2.32011L4.48 4.07349" stroke="#FFC9BB" stroke-width="1.03938" stroke-miterlimit="10" stroke-linecap="round"/>
</g><g transform="translate(88.84 66.35)">
<path d="M5.1387 7.67401C6.20074 7.98769 8.05437 8.38631 10.35 8.10531C11.1679 8.00729 12.8632 7.7851 14.6905 6.76566C15.8251 6.13178 17.8239 4.73984 19.3872 2.4657C20.0931 1.43319 20.5218 0.492163 21.6169 0.139278C21.8213 0.0739296 22.8042 -0.220138 23.7343 0.315723C24.6249 0.83198 24.8624 1.76647 24.9151 1.97559C25.1856 3.04077 24.7898 4.15171 23.9586 5.3868C19.7368 11.6799 12.7247 13.2548 12.7247 13.2548C11.821 13.4574 8.89873 14.039 5.20467 13.3986C2.97504 13.013 1.20717 12.3138 0 11.7322C1.7151 10.3795 3.4302 9.02673 5.1453 7.67401H5.1387Z" fill="#EFEEE8"/>
</g><g transform="translate(65.68 27.24)">
<path d="M4.36623 0.146015C4.97398 -0.0563816 5.44644 -0.0983091 5.78153 0.348484C6.11653 0.795322 6.02586 1.4287 5.57907 1.76379C5.57907 1.76379 4.25441 2.56516 3.46239 3.1593C2.67178 3.75239 1.53363 4.79787 1.53363 4.79787C1.08679 5.13286 0.453423 5.04219 0.118325 4.5954C0.0049806 4.44436 -0.174072 3.79875 0.401484 3.0188C0.977041 2.23886 1.21498 2.03218 1.93836 1.46062C2.78437 0.792176 3.75847 0.348412 4.36623 0.146015Z" fill="#443E39"/>
</g><g transform="translate(49.13 27.24)">
<path d="M1.61797 0.146015C1.01022 -0.0563816 0.537761 -0.0983091 0.202663 0.348484C-0.132335 0.795322 -0.0416657 1.4287 0.405132 1.76379C0.405132 1.76379 1.72979 2.56516 2.5218 3.1593C3.31242 3.75239 4.45056 4.79787 4.45056 4.79787C4.89741 5.13286 5.53077 5.04219 5.86587 4.5954C5.97922 4.44436 6.15827 3.79875 5.58271 3.0188C5.00716 2.23886 4.76922 2.03218 4.04584 1.46062C3.19983 0.792176 2.22573 0.348412 1.61797 0.146015Z" fill="#443E39"/>
</g></svg>