<svg width="125" height="114" viewBox="0 0 124.65 114.00" fill="none" xmlns="http://www.w3.org/2000/svg"><g transform="translate(37.24 98.57)">
<path d="M9.49229 14.8796L5.03752 13.9659C1.91688 13.3258 -0.125803 11.3256 0.00634679 6.8249L0.175759 0L17.7035 3.59516L16.3093 10.3924C15.6696 13.5114 12.6206 15.5213 9.49996 14.8812L9.49229 14.8796Z" fill="url(#paint0_radial_334_4160)"/>
<defs>
<radialGradient id="paint0_radial_334_4160" cx="0" cy="0" r="1" gradientTransform="matrix(8.20209 16.476 -19.1298 1.9716 3.16568 2.22241)" gradientUnits="userSpaceOnUse">
<stop offset="0.466427" stop-color="#FFD629"/>
<stop offset="0.978037" stop-color="#9AFFE9"/>
</radialGradient>
</defs>
</g><g transform="translate(72.08 98.57)">
<path d="M8.21099 14.8796L12.6658 13.9659C15.7864 13.3258 17.8291 11.3256 17.6969 6.8249L17.5275 0L-0.000211704 3.59516L1.394 10.3924C2.03373 13.5114 5.08268 15.5213 8.20332 14.8812L8.21099 14.8796Z" fill="url(#paint0_radial_334_4219)"/>
<defs>
<radialGradient id="paint0_radial_334_4219" cx="0" cy="0" r="1" gradientTransform="matrix(-8.20209 16.476 19.1298 1.9716 14.5376 2.22241)" gradientUnits="userSpaceOnUse">
<stop offset="0.466427" stop-color="#FFD629"/>
<stop offset="0.978037" stop-color="#9AFFE9"/>
</radialGradient>
</defs>
</g><g transform="translate(2.81 22.55)">
<path d="M2.55777 3.71523C6.3819 -0.742021 13.1019 -1.26368 17.5595 2.55725L36.3303 18.6382C36.6876 18.9465 36.7274 19.4852 36.4259 19.8397L23.6863 34.7024C23.3777 35.0597 22.8388 35.0997 22.4842 34.7984C20.8231 33.6396 6.4634 23.5091 1.89525 16.4709C0.41159 14.1829 0.108336 12.4513 0.030928 11.4628C-0.26447 7.87775 1.60225 5.00256 2.56054 3.72229L2.55777 3.71523Z" fill="url(#paint0_radial_334_4170)"/>
<defs>
<radialGradient id="paint0_radial_334_4170" cx="0" cy="0" r="1" gradientTransform="matrix(-40.9314 -24.4469 17.1324 -32.5033 32.956 26.1258)" gradientUnits="userSpaceOnUse">
<stop offset="0.543178" stop-color="#FFD629"/>
<stop offset="0.978037" stop-color="#9AFFE9"/>
</radialGradient>
</defs>
</g><g transform="translate(84.84 22.55)">
<path d="M34.0696 3.71523C30.2455 -0.742021 23.5255 -1.26368 19.0679 2.55725L0.297091 18.6382C-0.0602319 18.9465 -0.100025 19.4852 0.201491 19.8397L12.9411 34.7024C13.2497 35.0597 13.7886 35.0997 14.1432 34.7984C15.8043 33.6396 30.164 23.5091 34.7321 16.4709C36.2158 14.1829 36.519 12.4513 36.5965 11.4628C36.8919 7.87775 35.0251 5.00256 34.0668 3.72229L34.0696 3.71523Z" fill="url(#paint0_radial_334_4278)"/>
<defs>
<radialGradient id="paint0_radial_334_4278" cx="0" cy="0" r="1" gradientTransform="matrix(40.9314 -24.4469 -17.1324 -32.5033 3.67135 26.1258)" gradientUnits="userSpaceOnUse">
<stop offset="0.543178" stop-color="#FFD629"/>
<stop offset="0.978037" stop-color="#9AFFE9"/>
</radialGradient>
</defs>
</g><g transform="translate(58.94 0.00)">
<path d="M9.10094 0.480228C12.6184 -0.626482 15.6825 0.498932 16.2199 0.698105L16.2193 0.698763C17.568 1.19758 18.632 1.90023 19.4622 2.65307C20.9632 4.01184 21.6853 5.5668 22 6.36948L20.1504 7.1179C19.8944 6.46473 19.3164 5.22931 18.1369 4.16175L18.1362 4.16109C17.4799 3.56586 16.6316 3.00217 15.5382 2.59778C15.0922 2.4325 12.5555 1.50937 9.69003 2.41084C6.59775 3.38522 4.90495 5.87522 4.39211 6.7822C2.97585 9.28399 2.69158 11.1639 2.26127 14.8891C1.92458 17.8225 1.96393 20.2558 2.05454 21.8861L0.0662809 22C-0.0289077 20.2872 -0.0693547 17.7326 0.28403 14.6541C0.716391 10.9112 1.03007 8.66475 2.66631 5.77444C3.28203 4.68575 5.30587 1.67609 9.10094 0.480228Z" fill="#BFE75C"/>
</g><g transform="translate(24.94 20.00)">
<path d="M37.5033 0C10.6891 0 0 19.2897 0 38.4097V53.8088C0 70.4809 6.98904 84 30.9776 84H44.0224C68.011 84 75 70.4809 75 53.8088V38.4097C75 19.2962 64.3109 0 37.4967 0H37.5033Z" fill="url(#paint0_radial_334_4165)"/>
<defs>
<radialGradient id="paint0_radial_334_4165" cx="0" cy="0" r="1" gradientTransform="matrix(50.5865 106.243 -85.2533 40.6187 11.1182 -2.68798e-06)" gradientUnits="userSpaceOnUse">
<stop stop-color="#FFF2BB"/>
<stop offset="0.542996" stop-color="#FFD629"/>
<stop offset="0.978037" stop-color="#9AFFE9"/>
</radialGradient>
</defs>
</g><g transform="translate(67.94 -4.00)">
<g filter="url(#filter0_d_334_4166)">
<path d="M13.5 17C15.433 17 17 15.433 17 13.5C17 11.567 15.433 10 13.5 10C11.567 10 10 11.567 10 13.5C10 15.433 11.567 17 13.5 17Z" fill="#9AFFE9"/>
</g>
<defs>
<filter id="filter0_d_334_4166" x="0" y="0" width="27" height="27" filterUnits="userSpaceOnUse" color-interpolation-filters="sRGB">
<feFlood flood-opacity="0" result="BackgroundImageFix"/>
<feColorMatrix in="SourceAlpha" type="matrix" values="0 0 0 0 0 0 0 0 0 0 0 0 0 0 0 0 0 0 127 0" result="hardAlpha"/>
<feOffset/>
<feGaussianBlur stdDeviation="5"/>
<feComposite in2="hardAlpha" operator="out"/>
<feColorMatrix type="matrix" values="0 0 0 0 0 0 0 0 0 1 0 0 0 0 0.816667 0 0 0 1 0"/>
<feBlend mode="normal" in2="BackgroundImageFix" result="effect1_dropShadow_334_4166"/>
<feBlend mode="normal" in="SourceGraphic" in2="effect1_dropShadow_334_4166" result="shape"/>
</filter>
</defs>
</g><g transform="translate(48.94 51.00)">
<path d="M3 6C4.65686 6 6 4.65686 6 3C6 1.34315 4.65686 0 3 0C1.34315 0 0 1.34315 0 3C0 4.65686 1.34315 6 3 6Z" fill="#443E39"/>
</g><g transform="translate(69.94 51.00)">
<path d="M3 6C4.65686 6 6 4.65686 6 3C6 1.34315 4.65686 0 3 0C1.34315 0 0 1.34315 0 3C0 4.65686 1.34315 6 3 6Z" fill="#443E39"/>
</g><g transform="translate(57.94 56.00)">
<path d="M5.9611 3.35833L7.57295 2.14856C8.42097 1.50553 7.92178 0.252168 6.81514 0.252168C6.00921 0.105034 4.99279 -0.0148524 3.81397 0.00149578C2.80356 0.0123946 1.91344 0.121382 1.1857 0.252168C0.68651 0.252168 0.241444 0.535539 0.0730419 0.960592C-0.0833314 1.35295 0.000871976 1.82705 0.427891 2.14856L2.03974 3.35833C3.17645 4.21389 4.82438 4.21389 5.9611 3.35833Z" fill="#FF9827"/>
</g><g transform="translate(67.68 43.68)">
<path d="M4.36617 0.146013C4.97392 -0.0563809 5.44637 -0.0983079 5.78146 0.34848C6.11646 0.795312 6.02579 1.42868 5.579 1.76377C5.579 1.76377 4.25435 2.56513 3.46235 3.15926C2.67175 3.75234 1.53361 4.79781 1.53361 4.79781C1.08678 5.1328 0.453417 5.04213 0.118324 4.59534C0.00498054 4.44431 -0.17407 3.7987 0.401479 3.01877C0.977029 2.23883 1.21497 2.03215 1.93834 1.4606C2.78433 0.792166 3.75842 0.348408 4.36617 0.146013Z" fill="#443E39"/>
</g><g transform="translate(51.13 43.68)">
<path d="M1.61795 0.146013C1.0102 -0.0563809 0.537754 -0.0983079 0.20266 0.34848C-0.132333 0.795312 -0.0416652 1.42868 0.405127 1.76377C0.405127 1.76377 1.72977 2.56513 2.52177 3.15926C3.31237 3.75234 4.45051 4.79781 4.45051 4.79781C4.89734 5.1328 5.53071 5.04213 5.8658 4.59534C5.97914 4.44431 6.15819 3.7987 5.58264 3.01877C5.0071 2.23883 4.76916 2.03215 4.04579 1.4606C3.19979 0.792166 2.2257 0.348408 1.61795 0.146013Z" fill="#443E39"/>
</g></svg>