<svg width="117" height="104" viewBox="0 0 117 104" fill="none" xmlns="http://www.w3.org/2000/svg">
<path d="M51.921 15.8567C50.5195 13.4801 48.3717 10.2423 45.2507 6.80322C41.124 2.25136 38.7881 -0.320068 36.3225 0.0320096C32.598 0.566414 30.8007 7.4508 29.198 13.5116C28.1339 17.5227 26.9595 23.4766 26.9205 31.0086C35.2583 25.96 43.5897 20.9052 51.9275 15.8567H51.921Z" fill="#FF8B22"/>
<path d="M49.92 16.8597C48.7568 14.8989 46.8692 12.0922 43.9926 9.13468C41.1995 6.26896 39.716 4.7738 38.1349 5.02955C35.4463 5.46892 34.318 10.6823 33.2662 15.5088C32.1378 20.709 31.9219 25.0765 31.9219 28.0078L49.9269 16.8597H49.92Z" fill="#FFDFBD"/>
<path d="M63.9308 15.8567C65.3884 13.4801 67.622 10.2423 70.8679 6.80322C75.1664 2.25136 77.589 -0.320068 80.16 0.0320096C84.0334 0.566414 85.9026 7.4508 87.5694 13.5116C88.6761 17.5227 89.8975 23.4766 89.938 31.0086C81.2667 25.96 72.6021 20.9052 63.9308 15.8567Z" fill="#FF8B22"/>
<path d="M66.9382 16.8597C68.0368 14.8989 69.8195 12.0922 72.5363 9.13468C75.1741 6.26896 76.5753 4.7738 78.0686 5.02955C80.6078 5.46892 81.6734 10.6823 82.6667 15.5088C83.7324 20.709 83.9363 25.0765 83.9363 28.0078L66.9316 16.8597H66.9382Z" fill="#FFDFBD"/>
<path d="M57.8721 12.1821C31.2752 12.1821 20.6727 31.3093 20.6727 50.2683V65.5377C20.6727 82.0693 27.6051 95.4746 51.3993 95.4746H64.3385C88.1327 95.4746 95.0651 82.0693 95.0651 65.5377V50.2683C95.0651 31.3158 84.4626 12.1821 57.8657 12.1821H57.8721Z" fill="#FF8B22"/>
<path d="M45.0392 103.881L40.6321 102.977C37.5449 102.344 35.5241 100.365 35.6548 95.9125L35.8224 89.1607L53.1624 92.7173L51.7831 99.4418C51.1502 102.527 48.134 104.516 45.0467 103.882L45.0392 103.881Z" fill="#FF8B22"/>
<path d="M76.2645 103.881L80.6715 102.977C83.7587 102.344 85.7795 100.365 85.6488 95.9125L85.4812 89.1607L68.1412 92.7173L69.5205 99.4418C70.1534 102.527 73.1697 104.516 76.2569 103.882L76.2645 103.881Z" fill="#FF8B22"/>
<path d="M2.51829 18.5168C6.28264 14.1292 12.8976 13.6157 17.2855 17.3769L35.7629 33.2065C36.1147 33.51 36.1539 34.0403 35.8571 34.3893L23.3166 49.0197C23.0128 49.3714 22.4823 49.4108 22.1333 49.1142C20.4982 47.9735 6.36287 38.0013 1.86611 31.0731C0.405645 28.8209 0.107131 27.1164 0.030933 26.1432C-0.259848 22.6143 1.57769 19.784 2.52101 18.5238L2.51829 18.5168Z" fill="#FF8B22"/>
<path d="M114.115 18.5168C110.35 14.1292 103.735 13.6157 99.3474 17.3769L80.8699 33.2065C80.5182 33.51 80.479 34.0403 80.7758 34.3893L93.3163 49.0197C93.6201 49.3714 94.1506 49.4108 94.4996 49.1142C96.1347 47.9735 110.27 38.0013 114.767 31.0731C116.227 28.8209 116.526 27.1164 116.602 26.1432C116.893 22.6143 115.055 19.784 114.112 18.5238L114.115 18.5168Z" fill="#FF8B22"/>
<path d="M62.4855 46.1248C61.1546 45.8238 60.0271 46.197 59.4343 46.4499C59.1844 46.5221 58.7369 46.6305 58.2313 46.6726C58.1093 46.6847 58.0163 46.6847 57.9291 46.6847C57.4351 46.6847 57.2375 46.5944 56.4238 46.4499C55.8543 46.2332 54.0701 45.9863 53.053 46.2091C51.5536 46.5402 48.9325 48.5269 48.9267 51.6153C48.9208 53.7525 50.1704 55.5345 51.4722 56.3412C52.5416 57.0035 53.6458 57.0095 54.7152 57.0155C56.2088 57.0276 56.3483 56.6423 57.9291 56.6362C59.5273 56.6362 59.6494 57.0215 61.143 57.0155C62.2472 57.0095 63.4619 56.9975 64.5952 56.2208C65.8389 55.366 66.9432 53.6201 66.9315 51.6093C66.9141 48.7256 64.6068 46.6004 62.4855 46.1188V46.1248Z" fill="#FFDFBD"/>
<path d="M67.9319 48.0133C69.5892 48.0133 70.9327 46.6698 70.9327 45.0125C70.9327 43.3552 69.5892 42.0116 67.9319 42.0116C66.2746 42.0116 64.9311 43.3552 64.9311 45.0125C64.9311 46.6698 66.2746 48.0133 67.9319 48.0133Z" fill="#443E39"/>
<path d="M59.4049 50.5264L60.6097 49.6188C61.2464 49.1373 60.8699 48.205 60.0416 48.205C59.4392 48.0939 58.6725 48.0074 57.7894 48.0136C57.0296 48.0198 56.3656 48.1062 55.8179 48.205C55.4483 48.205 55.1128 48.4149 54.9828 48.736C54.8664 49.0323 54.928 49.3842 55.2498 49.625L56.4546 50.5326C57.3102 51.1747 58.5424 51.1747 59.3981 50.5326L59.4049 50.5264Z" fill="#443E39"/>
<path d="M57.9263 51.0141V52.5344L54.2313 54.1064" stroke="#443E39" stroke-width="1.00028" stroke-miterlimit="10" stroke-linecap="round"/>
<path d="M57.9291 51.0141V52.5344L61.9302 54.015" stroke="#443E39" stroke-width="1.00028" stroke-miterlimit="10" stroke-linecap="round"/>
<path d="M93.1387 78.8206C94.614 78.4653 96.3575 78.1734 98.3182 78.0655C102.214 77.8498 105.484 78.4653 107.815 79.1125C107.949 79.1125 108.326 79.1316 108.613 79.4108C108.997 79.7788 109.06 80.4451 108.728 81.0288C108.403 81.5618 107.911 82.3741 107.355 83.3893C105.899 86.0353 105.375 87.4948 104.877 88.4783C103.76 90.6802 100.49 93.3579 97.0537 94.7412C92.3148 96.6575 88.0997 95.9595 86.139 95.6105C82.8946 95.0331 80.4358 93.8402 78.935 92.9709C83.6674 88.2562 88.3999 83.5416 93.1323 78.827L93.1387 78.8206Z" fill="#FF8B22"/>
<mask id="mask0_334_4433" style="mask-type:luminance" maskUnits="userSpaceOnUse" x="78" y="77" width="31" height="20">
<path d="M92.7933 78.632C94.2885 78.2696 96.0556 77.9718 98.0428 77.8618C101.991 77.6417 105.305 78.2696 107.668 78.9298C107.804 78.9298 108.186 78.9492 108.477 79.234C108.865 79.6094 108.93 80.2891 108.593 80.8846C108.263 81.4283 107.765 82.2568 107.202 83.2925C105.726 85.9917 105.195 87.4804 104.69 88.4837C103.558 90.7298 100.244 93.4613 96.7611 94.8724C91.9583 96.8272 87.6862 96.1152 85.6991 95.7592C82.4109 95.1701 79.9188 93.9533 78.3977 93.0665C83.1941 88.2572 87.9904 83.4478 92.7868 78.6385L92.7933 78.632Z" fill="white"/>
</mask>
<g mask="url(#mask0_334_4433)">
<path d="M99.8157 77.8165H95.0776C95.5048 78.0624 95.9579 78.3084 96.4434 78.5479C97.725 79.1822 98.9548 79.6483 100.075 79.9849C99.518 80.2308 98.8966 80.5545 98.2493 80.9817C96.9612 81.8296 96.0356 82.7876 95.4077 83.5579C95.3689 83.6226 95.2977 83.778 95.343 83.9398C95.4142 84.1793 95.7443 84.354 96.1327 84.2828L101.363 83.9592C100.508 85.9269 99.6539 87.9012 98.7995 89.8689C98.793 89.8948 98.7089 90.1796 98.8836 90.3932C99.0519 90.6003 99.4015 90.6456 99.6863 90.4644C100.819 89.8948 101.952 89.3252 103.085 88.7556C101.751 90.8657 100.418 92.9759 99.0843 95.086L111.765 82.3345L110.405 77.8229H99.8222L99.8157 77.8165Z" fill="#FFDFBD"/>
</g>
<path d="M46.9261 49.0136C48.5834 49.0136 49.9269 47.6701 49.9269 46.0127C49.9269 44.3554 48.5834 43.0119 46.9261 43.0119C45.2688 43.0119 43.9253 44.3554 43.9253 46.0127C43.9253 47.6701 45.2688 49.0136 46.9261 49.0136Z" fill="#443E39"/>
<mask id="mask1_334_4433" style="mask-type:alpha" maskUnits="userSpaceOnUse" x="20" y="12" width="76" height="84">
<path d="M57.8721 12.1821C31.2752 12.1821 20.6727 31.3093 20.6727 50.2683V65.5377C20.6727 82.0693 27.6051 95.4746 51.3993 95.4746H64.3385C88.1327 95.4746 95.0651 82.0693 95.0651 65.5377V50.2683C95.0651 31.3158 84.4626 12.1821 57.8657 12.1821H57.8721Z" fill="#FF8B22"/>
</mask>
<g mask="url(#mask1_334_4433)">
<path d="M79.6149 111.184C74.8055 130.589 66.2614 115.294 55.9825 115.521C43.5029 115.799 36.5446 118.841 34.0137 107.74C30.2659 91.3251 27.4826 78.2629 35.25 69.0715C42.6485 60.3267 55.4323 60.029 57.9179 60.0225C60.1704 60.0225 72.2229 60.0031 79.3948 67.9388C87.803 77.2467 84.4048 91.8365 79.6149 111.177V111.184Z" fill="#FFDFBD"/>
</g>
<path d="M71.0636 37.042C71.2738 38.0937 70.0162 39.0353 68.2635 39.3857C66.0341 39.8314 65.0063 39.465 64.796 38.4133C64.5858 37.3617 65.1399 36.6313 67.6034 35.9712C70.1636 35.4305 70.8533 35.9904 71.0636 37.042Z" fill="#FFDFBD"/>
<path d="M44.6736 37.042C44.4633 38.0937 45.7209 39.0353 47.4737 39.3857C49.703 39.8314 50.7309 39.465 50.9411 38.4133C51.1514 37.3617 50.5972 36.6313 48.1337 35.9712C45.5735 35.4305 44.8838 35.9904 44.6736 37.042Z" fill="#FFDFBD"/>
</svg>
