<svg width="164" height="165" viewBox="0 0 164 165" fill="none" xmlns="http://www.w3.org/2000/svg">
<path d="M94.7856 23.4912C97.7656 20.9312 103.626 16.4612 110.586 14.9912C113.796 14.3112 115.786 14.5812 117.356 15.4812C118.096 15.9012 119.336 16.8112 120.796 19.8212C121.526 21.3212 123.576 25.9612 123.656 39.9212C123.656 40.6312 123.656 41.2012 123.656 41.5512C114.036 35.5312 104.416 29.5212 94.7956 23.5012L94.7856 23.4912Z" fill="#EFEEE8"/>
<path d="M97.4155 24.5012C99.2355 23.2712 104.436 19.9012 109.226 19.1212C110.536 18.9112 111.786 18.8912 112.926 19.5312C114.226 20.2712 114.866 21.5912 115.326 22.9612C116.986 27.9112 116.846 35.0812 116.776 37.2412L97.4155 24.5112V24.5012Z" fill="#FFC9BB"/>
<path d="M64.0853 23.4912C61.1053 20.9312 55.2453 16.4612 48.2853 14.9912C45.0753 14.3112 43.0853 14.5812 41.5153 15.4812C40.7753 15.9012 39.5353 16.8112 38.0753 19.8212C37.3453 21.3212 35.2953 25.9612 35.2153 39.9212C35.2153 40.6312 35.2153 41.2012 35.2153 41.5512C44.8353 35.5312 54.4553 29.5212 64.0753 23.5012L64.0853 23.4912Z" fill="#EFEEE8"/>
<path d="M61.4553 24.5012C59.6353 23.2712 54.4353 19.9012 49.6453 19.1212C48.3353 18.9112 47.0853 18.8912 45.9453 19.5312C44.6453 20.2712 44.0053 21.5912 43.5453 22.9612C41.8853 27.9112 42.0253 35.0812 42.0953 37.2412L61.4553 24.5112V24.5012Z" fill="#FFC9BB"/>
<path d="M79.4353 21.9213C38.3453 21.9213 21.9653 51.4713 21.9653 80.7613V104.351C21.9653 129.891 32.6753 150.601 69.4353 150.601H89.4253C126.185 150.601 136.895 129.891 136.895 104.351V80.7613C136.895 51.4813 120.515 21.9213 79.4253 21.9213H79.4353Z" fill="#EFEEE8"/>
<path d="M68.3555 164.001H62.5455C58.4755 164.001 55.4055 162.021 54.4155 156.351L52.8755 147.761H75.7355V156.631C75.7355 160.701 72.4355 164.001 68.3655 164.001H68.3555Z" fill="#EFEEE8"/>
<path d="M90.5153 164.001H96.3253C100.395 164.001 103.465 162.021 104.455 156.351L105.995 147.761H83.1353V156.631C83.1353 160.701 86.4353 164.001 90.5053 164.001H90.5153Z" fill="#EFEEE8"/>
<path d="M62.6554 78.2113C65.2235 78.2113 67.3054 76.1294 67.3054 73.5613C67.3054 70.9931 65.2235 68.9113 62.6554 68.9113C60.0872 68.9113 58.0054 70.9931 58.0054 73.5613C58.0054 76.1294 60.0872 78.2113 62.6554 78.2113Z" fill="#443E39"/>
<path d="M96.2154 78.2113C98.7836 78.2113 100.865 76.1294 100.865 73.5613C100.865 70.9931 98.7836 68.9113 96.2154 68.9113C93.6473 68.9113 91.5654 70.9931 91.5654 73.5613C91.5654 76.1294 93.6473 78.2113 96.2154 78.2113Z" fill="#443E39"/>
<path d="M81.5855 80.5312L83.3455 79.0612C84.2755 78.2812 83.7255 76.7712 82.5155 76.7712C81.6355 76.5912 80.5155 76.4512 79.2255 76.4612C78.1155 76.4712 77.1455 76.6112 76.3455 76.7712C75.8055 76.7712 75.3155 77.1112 75.1255 77.6312C74.9555 78.1112 75.0455 78.6812 75.5155 79.0712L77.2755 80.5412C78.5255 81.5812 80.3255 81.5812 81.5755 80.5412L81.5855 80.5312Z" fill="#FFC9BB"/>
<path d="M144.465 120.631C137.635 124.261 129.145 121.671 125.515 114.841L110.225 86.0912C109.935 85.5412 110.145 84.8612 110.685 84.5712L133.445 72.4612C133.995 72.1712 134.675 72.3812 134.965 72.9212C136.445 75.1412 149.185 94.4712 151.405 105.301C152.125 108.821 151.665 111.091 151.285 112.341C149.925 116.881 146.255 119.511 144.465 120.621V120.631Z" fill="#EFEEE8"/>
<path d="M14.4155 120.631C21.2455 124.261 29.7355 121.671 33.3655 114.841L48.6555 86.0912C48.9455 85.5412 48.7355 84.8612 48.1955 84.5712L25.4355 72.4612C24.8855 72.1712 24.2055 72.3812 23.9155 72.9212C22.4355 75.1412 9.69547 94.4712 7.47547 105.301C6.75547 108.821 7.21547 111.091 7.59547 112.341C8.95547 116.881 12.6255 119.511 14.4155 120.621V120.631Z" fill="#EFEEE8"/>
<path d="M79.4357 80.9712V83.6512L73.5957 86.2612" stroke="#FFC9BB" stroke-miterlimit="10" stroke-linecap="round"/>
<path d="M79.4355 80.9712V83.6512L85.2756 86.2612" stroke="#FFC9BB" stroke-miterlimit="10" stroke-linecap="round"/>
<path d="M126.795 137.231C128.405 137.711 131.215 138.321 134.695 137.891C135.935 137.741 138.505 137.401 141.275 135.841C142.995 134.871 146.025 132.741 148.395 129.261C149.465 127.681 150.115 126.241 151.775 125.701C152.085 125.601 153.575 125.151 154.985 125.971C156.335 126.761 156.695 128.191 156.775 128.511C157.185 130.141 156.585 131.841 155.325 133.731C148.925 143.361 138.295 145.771 138.295 145.771C136.925 146.081 132.495 146.971 126.895 145.991C123.515 145.401 120.835 144.331 119.005 143.441C121.605 141.371 124.205 139.301 126.805 137.231H126.795Z" fill="#EFEEE8"/>
<path d="M96.1804 64.0881C97.0177 64.0865 97.6207 63.9421 97.8504 63.2492C98.0799 62.5562 97.7044 61.8088 97.0114 61.5792C97.0114 61.5792 95.0367 61.1363 93.8082 60.729C92.5819 60.3225 90.7369 59.4996 90.7369 59.4996C90.0439 59.2701 89.2966 59.6456 89.0669 60.3386C88.9892 60.5729 89.0355 61.4474 90.0729 62.1749C91.1103 62.9025 91.4911 63.0598 92.6251 63.4676C93.9514 63.9446 95.3431 64.0898 96.1804 64.0881Z" fill="#443E39"/>
<path d="M60.5669 64.095C59.7296 64.0955 59.1262 63.9527 58.8948 63.2603C58.6634 62.5679 59.0371 61.8196 59.7295 61.5881C59.7295 61.5881 61.703 61.1402 62.9305 60.7298C64.1557 60.32 65.9986 59.4924 65.9986 59.4924C66.691 59.2611 67.4393 59.6347 67.6708 60.3271C67.7491 60.5612 67.705 61.4359 66.6695 62.1661C65.634 62.8962 65.2536 63.0545 64.1206 63.4653C62.7956 63.9456 61.4043 64.0945 60.5669 64.095Z" fill="#443E39"/>
</svg>
