<svg width="78" height="78" viewBox="0 0 78 78" fill="none" xmlns="http://www.w3.org/2000/svg">
<circle cx="39" cy="39" r="39" fill="#FFD629" fill-opacity="0.3"/>
<g clip-path="url(#clip0_204_1046)">
<path d="M60.0933 43.5904C60.8263 42.8701 61.4081 42.0105 61.8042 41.0621C62.2004 40.1138 62.403 39.0958 62.4001 38.068C62.3999 36.6746 62.0151 35.3083 61.2881 34.1195C60.5611 32.9308 59.5201 31.9658 58.2798 31.3308C57.3695 26.8893 54.9538 22.8982 51.4408 20.0322C47.9277 17.1661 43.5329 15.6008 38.9991 15.6008C34.4653 15.6008 30.0705 17.1661 26.5575 20.0322C23.0445 22.8982 20.6287 26.8893 19.7185 31.3308C18.4787 31.9662 17.4382 32.9314 16.7115 34.1201C15.9849 35.3087 15.6003 36.6749 15.6001 38.068C15.6024 39.8906 16.2439 41.6546 17.413 43.0528C18.5821 44.4511 20.2047 45.3949 21.998 45.7198C22.6839 47.0523 23.5293 48.2964 24.5155 49.4248C22.0882 52.1032 20.4595 55.4078 19.814 58.9642C19.7463 59.3425 19.7538 59.7304 19.836 60.1057C19.9183 60.481 20.0737 60.8365 20.2933 61.1518C20.513 61.4671 20.7926 61.736 21.1162 61.9431C21.4399 62.1503 21.8011 62.2917 22.1794 62.3592C22.3509 62.3873 22.5244 62.401 22.6981 62.4001C23.3837 62.399 24.0471 62.157 24.5725 61.7164C25.0978 61.2759 25.4517 60.6648 25.5724 59.9899C26.0273 57.4905 27.1761 55.1694 28.8874 53.2917C31.8719 55.3336 35.3849 56.4656 39.0001 56.5501C42.618 56.4671 46.1339 55.3351 49.1206 53.2917C50.8319 55.1694 51.9806 57.4905 52.4356 59.9899C52.556 60.6635 52.9088 61.2736 53.4325 61.714C53.9563 62.1543 54.6178 62.3971 55.3021 62.4001C55.4759 62.3997 55.6495 62.3847 55.8208 62.3553C56.1991 62.2878 56.5603 62.1464 56.884 61.9392C57.2076 61.7321 57.4872 61.4632 57.7069 61.1479C57.9265 60.8326 58.0819 60.4771 58.1642 60.1018C58.2464 59.7264 58.2539 59.3386 58.1862 58.9603C57.5407 55.4039 55.912 52.0993 53.4847 49.4209C54.4712 48.2928 55.3166 47.0486 56.0022 45.7159C57.5506 45.4408 58.9779 44.6992 60.0933 43.5904ZM54.6001 39.9907H54.5787H54.2627C53.6183 39.9428 52.976 40.1075 52.4342 40.4598C51.8925 40.812 51.4813 41.3323 51.2636 41.9407C50.268 44.4185 48.5843 46.5598 46.4114 48.1118C44.2384 49.6639 41.6668 50.562 39.0001 50.7001C36.3302 50.5621 33.7557 49.6624 31.5811 48.1073C29.4064 46.5523 27.7226 44.407 26.7287 41.9251C26.5273 41.3552 26.1542 40.8618 25.6607 40.5126C25.1673 40.1634 24.5779 39.9756 23.9734 39.9751C23.8915 39.9751 23.8115 39.9751 23.7296 39.9849H23.402H23.3806C22.8706 39.9859 22.3811 39.7847 22.0192 39.4254C21.6573 39.0661 21.4527 38.578 21.4501 38.068C21.4514 37.6649 21.594 37.2751 21.853 36.9662C22.112 36.6573 22.4711 36.449 22.8677 36.3774C23.4892 36.2638 24.0572 35.952 24.4868 35.4888C24.9163 35.0255 25.1843 34.4356 25.2506 33.8073C25.6289 30.1892 27.4244 26.8681 30.2446 24.5701C30.2815 26.2875 30.8222 27.9561 31.7997 29.3687C32.7771 30.7812 34.1481 31.8753 35.7423 32.515C37.3365 33.1547 39.0835 33.3118 40.7663 32.9667C42.449 32.6217 43.9932 31.7897 45.2069 30.5742C45.4907 30.3052 45.7176 29.9821 45.8742 29.6239C46.0309 29.2657 46.1142 28.8797 46.1192 28.4888C46.1242 28.0979 46.0507 27.7099 45.9032 27.3479C45.7557 26.9858 45.537 26.657 45.2603 26.3809C44.9835 26.1048 44.6542 25.8869 44.2918 25.7403C43.9294 25.5936 43.5412 25.521 43.1503 25.5269C42.7594 25.5328 42.3737 25.617 42.0158 25.7746C41.658 25.9321 41.3354 26.1597 41.0671 26.4441C40.5102 26.9763 39.7695 27.2733 38.9991 27.2733C38.2288 27.2733 37.4881 26.9763 36.9312 26.4441C36.5218 26.035 36.243 25.5137 36.13 24.9461C36.0171 24.3786 36.075 23.7902 36.2965 23.2556C36.518 22.721 36.8931 22.2641 37.3744 21.9427C37.8556 21.6213 38.4214 21.4499 39.0001 21.4501C42.4148 21.4419 45.711 22.7011 48.2504 24.984C50.7898 27.2669 52.3916 30.411 52.7457 33.8073C52.8122 34.4361 53.0808 35.0264 53.5111 35.4898C53.9414 35.9531 54.5103 36.2646 55.1325 36.3774C55.5291 36.449 55.8882 36.6573 56.1472 36.9662C56.4062 37.2751 56.5488 37.6649 56.5501 38.068C56.5506 38.322 56.5006 38.5735 56.4028 38.8079C56.305 39.0422 56.1615 39.2548 55.9807 39.433C55.7988 39.6126 55.5832 39.7543 55.3462 39.85C55.1092 39.9458 54.8557 39.9936 54.6001 39.9907Z" fill="#F3C500"/>
<path d="M34.1254 40.9501C35.7409 40.9501 37.0504 39.6405 37.0504 38.0251C37.0504 36.4097 35.7409 35.1001 34.1254 35.1001C32.51 35.1001 31.2004 36.4097 31.2004 38.0251C31.2004 39.6405 32.51 40.9501 34.1254 40.9501Z" fill="#F3C500"/>
<path d="M43.8747 40.9501C45.4901 40.9501 46.7997 39.6405 46.7997 38.0251C46.7997 36.4097 45.4901 35.1001 43.8747 35.1001C42.2593 35.1001 40.9497 36.4097 40.9497 38.0251C40.9497 39.6405 42.2593 40.9501 43.8747 40.9501Z" fill="#F3C500"/>
</g>
<defs>
<clipPath id="clip0_204_1046">
<rect width="46.8" height="46.8" fill="white" transform="translate(15.6001 15.6)"/>
</clipPath>
</defs>
</svg>
