<svg width="18" height="18" viewBox="0 0 18 18" fill="none" xmlns="http://www.w3.org/2000/svg">
<path d="M16.875 7.875H1.125C0.503684 7.875 0 8.37868 0 9C0 9.62132 0.503684 10.125 1.125 10.125H16.875C17.4963 10.125 18 9.62132 18 9C18 8.37868 17.4963 7.875 16.875 7.875Z" fill="#CACACA"/>
<path d="M1.125 4.87501H16.875C17.4963 4.87501 18 4.37132 18 3.75C18 3.12868 17.4963 2.625 16.875 2.625H1.125C0.503684 2.625 0 3.12868 0 3.75C0 4.37132 0.503684 4.87501 1.125 4.87501Z" fill="#CACACA"/>
<path d="M16.875 13.125H1.125C0.503684 13.125 0 13.6287 0 14.25C0 14.8713 0.503684 15.375 1.125 15.375H16.875C17.4963 15.375 18 14.8713 18 14.25C18 13.6287 17.4963 13.125 16.875 13.125Z" fill="#CACACA"/>
</svg>
