<svg width="113" height="111" viewBox="0 0 113 111" fill="none" xmlns="http://www.w3.org/2000/svg">
<path d="M0.353714 111C-0.362475 98.724 0.0126704 86.244 1.44505 73.934C3.66182 55.0269 5.33293 43.6351 13.6885 29.1148C16.4168 24.422 26.8186 8.57544 46.7355 2.42044C63.1396 -2.64638 77.8044 1.50229 83.3293 3.50862C89.5704 5.78699 95.1976 9.08552 99.9722 13.3702C105.599 18.369 110.101 24.8641 113 32.1072L103.485 35.8819C101.882 31.8352 98.7445 25.9862 93.1173 20.9534C89.2976 17.5529 84.8299 14.9005 79.7825 13.0642C75.2125 11.3979 63.1737 7.99734 49.7367 12.146C33.3666 17.1788 24.7723 30.2709 22.5215 34.1816C15.1208 47.0016 13.7567 56.4892 11.574 75.0902C10.2098 86.8221 9.8347 98.69 10.5168 110.388L0.285517 110.966L0.353714 111Z" fill="#C8DD94"/>
</svg>
