<svg width="48" height="49" viewBox="0 0 48 49" fill="none" xmlns="http://www.w3.org/2000/svg">
<g opacity="0.8" filter="url(#filter0_d_364_8274)">
<path d="M36.7791 22.9427C38.323 23.7085 38.2601 25.9319 36.6753 26.6092L30.6905 29.167C30.0446 29.443 29.5886 30.0348 29.4862 30.7298L28.5374 37.1687C28.2861 38.8738 26.1521 39.501 25.0182 38.2031L20.7362 33.3016C20.2741 32.7726 19.5703 32.5217 18.8778 32.6391L12.4608 33.7265C10.7615 34.0144 9.50555 32.1787 10.3896 30.6992L13.7279 25.1121C14.0882 24.5091 14.1093 23.7623 13.7837 23.1399L10.7666 17.373C9.96764 15.8459 11.3254 14.0841 13.0056 14.4677L19.3509 15.9162C20.0357 16.0725 20.7525 15.8618 21.2438 15.3598L25.7961 10.7082C27.0016 9.47651 29.0967 10.2234 29.2511 11.9399L29.8344 18.4222C29.8973 19.1218 30.3192 19.7384 30.9485 20.0506L36.7791 22.9427Z" fill="url(#paint0_linear_364_8274)"/>
</g>
<defs>
<filter id="filter0_d_364_8274" x="0" y="0" width="48" height="48.9945" filterUnits="userSpaceOnUse" color-interpolation-filters="sRGB">
<feFlood flood-opacity="0" result="BackgroundImageFix"/>
<feColorMatrix in="SourceAlpha" type="matrix" values="0 0 0 0 0 0 0 0 0 0 0 0 0 0 0 0 0 0 127 0" result="hardAlpha"/>
<feOffset/>
<feGaussianBlur stdDeviation="5"/>
<feComposite in2="hardAlpha" operator="out"/>
<feColorMatrix type="matrix" values="0 0 0 0 0.483333 0 0 0 0 1 0 0 0 0 0.69 0 0 0 1 0"/>
<feBlend mode="normal" in2="BackgroundImageFix" result="effect1_dropShadow_364_8274"/>
<feBlend mode="normal" in="SourceGraphic" in2="effect1_dropShadow_364_8274" result="shape"/>
</filter>
<linearGradient id="paint0_linear_364_8274" x1="41.0189" y1="13.6776" x2="4.71708" y2="35.0901" gradientUnits="userSpaceOnUse">
<stop offset="0.391809" stop-color="#F8A3A5"/>
<stop offset="0.739022" stop-color="white"/>
</linearGradient>
</defs>
</svg>
