<svg width="39" height="39" viewBox="0 0 39 39" fill="none" xmlns="http://www.w3.org/2000/svg">
<g opacity="0.3" filter="url(#filter0_d_364_8275)">
<path d="M14.7144 11.1517C14.6681 10.2922 15.6504 9.77345 16.3342 10.2962L20.214 13.2621C20.4927 13.4752 20.862 13.5281 21.1893 13.4019L25.7461 11.6454C26.5492 11.3358 27.3462 12.1097 27.0603 12.9215L25.4385 17.528C25.322 17.8589 25.3858 18.2265 25.6069 18.4988L28.6856 22.2898C29.2282 22.9579 28.7385 23.955 27.878 23.934L22.9959 23.815C22.6452 23.8065 22.3152 23.9808 22.1246 24.2752L19.4705 28.3747C19.0028 29.0972 17.9032 28.9396 17.6572 28.1148L16.2617 23.4348C16.1615 23.0986 15.8938 22.8387 15.5548 22.7483L10.8358 21.491C10.0041 21.2694 9.81427 20.1749 10.5227 19.6861L14.5424 16.9127C14.8311 16.7135 14.9956 16.3786 14.9768 16.0283L14.7144 11.1517Z" fill="url(#paint0_linear_364_8275)"/>
</g>
<defs>
<filter id="filter0_d_364_8275" x="0" y="0" width="39" height="38.9221" filterUnits="userSpaceOnUse" color-interpolation-filters="sRGB">
<feFlood flood-opacity="0" result="BackgroundImageFix"/>
<feColorMatrix in="SourceAlpha" type="matrix" values="0 0 0 0 0 0 0 0 0 0 0 0 0 0 0 0 0 0 127 0" result="hardAlpha"/>
<feOffset/>
<feGaussianBlur stdDeviation="5"/>
<feComposite in2="hardAlpha" operator="out"/>
<feColorMatrix type="matrix" values="0 0 0 0 0.483333 0 0 0 0 1 0 0 0 0 0.69 0 0 0 1 0"/>
<feBlend mode="normal" in2="BackgroundImageFix" result="effect1_dropShadow_364_8275"/>
<feBlend mode="normal" in="SourceGraphic" in2="effect1_dropShadow_364_8275" result="shape"/>
</filter>
<linearGradient id="paint0_linear_364_8275" x1="8.29647" y1="12.2958" x2="31.4845" y2="25.6852" gradientUnits="userSpaceOnUse">
<stop offset="0.391809" stop-color="#FC86F2"/>
<stop offset="0.739022" stop-color="white"/>
</linearGradient>
</defs>
</svg>
